Geologica-SharpBlack.ufo
<glyph name="quotesingle" format="2">
  <advance width="516"/>
  <unicode hex="0027"/>
  <outline>
    <contour>
      <point x="118" y="702" type="line"/>
      <point x="398" y="702" type="line"/>
      <point x="438" y="1400" type="line"/>
      <point x="78" y="1400" type="line"/>
    </contour>
  </outline>
</glyph>
<glyph name="parenright" format="2">
  <advance width="732"/>
  <unicode hex="0029"/>
  <outline>
    <contour>
      <point x="423" y="-158" type="line"/>
      <point x="563" y="113"/>
      <point x="632" y="400"/>
      <point x="632" y="688" type="curve" smooth="yes"/>
      <point x="632" y="978"/>
      <point x="563" y="1265"/>
      <point x="423" y="1538" type="curve"/>
      <point x="60" y="1538" type="line"/>
      <point x="207" y="1290"/>
      <point x="282" y="988"/>
      <point x="282" y="684" type="curve" smooth="yes"/>
      <point x="282" y="384"/>
      <point x="209" y="83"/>
      <point x="60" y="-158" type="curve"/>
    </contour>
  </outline>
</glyph>
<glyph name="plus" format="2">
  <advance width="1296"/>
  <unicode hex="002B"/>
  <outline>
    <contour>
      <point x="508" y="110" type="line"/>
      <point x="788" y="110" type="line"/>
      <point x="788" y="536" type="line"/>
      <point x="1228" y="536" type="line"/>
      <point x="1228" y="804" type="line"/>
      <point x="788" y="804" type="line"/>
      <point x="788" y="1230" type="line"/>
      <point x="508" y="1230" type="line"/>
      <point x="508" y="804" type="line"/>
      <point x="68" y="804" type="line"/>
      <point x="68" y="536" type="line"/>
      <point x="508" y="536" type="line"/>
    </contour>
  </outline>
</glyph>
<glyph name="slash" format="2">
  <advance width="948"/>
  <unicode hex="002F"/>
  <outline>
    <contour>
      <point x="296" y="-220" type="line"/>
      <point x="1025" y="1600" type="line"/>
      <point x="652" y="1600" type="line"/>
      <point x="-77" y="-220" type="line"/>
    </contour>
  </outline>
</glyph>
<glyph name="eight" format="2">
  <advance width="1230"/>
  <unicode hex="0038"/>
  <outline>
    <contour>
      <point x="605" y="-30" type="curve" smooth="yes"/>
      <point x="929" y="-30"/>
      <point x="1163" y="150"/>
      <point x="1163" y="390" type="curve" smooth="yes"/>
      <point x="1163" y="553"/>
      <point x="1063" y="678"/>
      <point x="925" y="740" type="curve"/>
      <point x="1015" y="784"/>
      <point x="1115" y="880"/>
      <point x="1115" y="1040" type="curve" smooth="yes"/>
      <point x="1115" y="1264"/>
      <point x="907" y="1430"/>
      <point x="615" y="1430" type="curve" smooth="yes"/>
      <point x="327" y="1430"/>
      <point x="119" y="1266"/>
      <point x="119" y="1040" type="curve" smooth="yes"/>
      <point x="119" y="882"/>
      <point x="217" y="784"/>
      <point x="309" y="740" type="curve"/>
      <point x="159" y="678"/>
      <point x="67" y="555"/>
      <point x="67" y="390" type="curve" smooth="yes"/>
      <point x="67" y="150"/>
      <point x="263" y="-30"/>
    </contour>
    <contour>
      <point x="615" y="276" type="curve" smooth="yes"/>
      <point x="521" y="276"/>
      <point x="435" y="334"/>
      <point x="435" y="438" type="curve" smooth="yes"/>
      <point x="435" y="540"/>
      <point x="517" y="598"/>
      <point x="615" y="598" type="curve" smooth="yes"/>
      <point x="711" y="598"/>
      <point x="795" y="544"/>
      <point x="795" y="438" type="curve" smooth="yes"/>
      <point x="795" y="334"/>
      <point x="705" y="276"/>
    </contour>
    <contour>
      <point x="617" y="892" type="curve" smooth="yes"/>
      <point x="527" y="892"/>
      <point x="461" y="951"/>
      <point x="461" y="1031" type="curve" smooth="yes"/>
      <point x="461" y="1109"/>
      <point x="526" y="1168"/>
      <point x="617" y="1168" type="curve" smooth="yes"/>
      <point x="707" y="1168"/>
      <point x="773" y="1109"/>
      <point x="773" y="1031" type="curve" smooth="yes"/>
      <point x="773" y="951"/>
      <point x="707" y="892"/>
    </contour>
  </outline>
</glyph>
<glyph name="nine" format="2">
  <advance width="1280"/>
  <unicode hex="0039"/>
  <outline>
    <contour>
      <point x="206" y="-19" type="line"/>
      <point x="886" y="-104"/>
      <point x="1190" y="352"/>
      <point x="1190" y="812" type="curve" smooth="yes"/>
      <point x="1190" y="1200"/>
      <point x="960" y="1430"/>
      <point x="630" y="1430" type="curve" smooth="yes"/>
      <point x="291" y="1430"/>
      <point x="88" y="1216"/>
      <point x="88" y="962" type="curve" smooth="yes"/>
      <point x="88" y="694"/>
      <point x="255" y="500"/>
      <point x="530" y="500" type="curve" smooth="yes"/>
      <point x="652" y="500"/>
      <point x="741" y="534"/>
      <point x="810" y="591" type="curve"/>
      <point x="766" y="375"/>
      <point x="535" y="265"/>
      <point x="206" y="307" type="curve"/>
    </contour>
    <contour>
      <point x="630" y="806" type="curve" smooth="yes"/>
      <point x="531" y="806"/>
      <point x="458" y="871"/>
      <point x="458" y="960" type="curve" smooth="yes"/>
      <point x="458" y="1050"/>
      <point x="531" y="1114"/>
      <point x="630" y="1114" type="curve" smooth="yes"/>
      <point x="729" y="1114"/>
      <point x="802" y="1050"/>
      <point x="802" y="960" type="curve" smooth="yes"/>
      <point x="802" y="871"/>
      <point x="729" y="806"/>
    </contour>
  </outline>
</glyph>
<glyph name="greater" format="2">
  <advance width="1296"/>
  <unicode hex="003E"/>
  <outline>
    <contour>
      <point x="70" y="36" type="line"/>
      <point x="1228" y="494" type="line"/>
      <point x="1228" y="764" type="line"/>
      <point x="68" y="1222" type="line"/>
      <point x="68" y="926" type="line"/>
      <point x="808" y="628" type="line"/>
      <point x="69" y="331" type="line"/>
    </contour>
  </outline>
</glyph>
<glyph name="C" format="2">
  <advance width="1303"/>
  <unicode hex="0043"/>
  <anchor x="769" y="0" name="bottom"/>
  <anchor x="769" y="1400" name="top"/>
  <outline>
    <contour>
      <point x="809" y="-30" type="curve" smooth="yes"/>
      <point x="981" y="-30"/>
      <point x="1119" y="2"/>
      <point x="1229" y="52" type="curve"/>
      <point x="1229" y="476" type="line"/>
      <point x="1109" y="398"/>
      <point x="973" y="364"/>
      <point x="845" y="364" type="curve" smooth="yes"/>
      <point x="621" y="364"/>
      <point x="491" y="490"/>
      <point x="491" y="700" type="curve" smooth="yes"/>
      <point x="491" y="906"/>
      <point x="615" y="1036"/>
      <point x="841" y="1036" type="curve" smooth="yes"/>
      <point x="983" y="1036"/>
      <point x="1103" y="996"/>
      <point x="1185" y="918" type="curve"/>
      <point x="1185" y="1356" type="line"/>
      <point x="1087" y="1404"/>
      <point x="971" y="1430"/>
      <point x="815" y="1430" type="curve" smooth="yes"/>
      <point x="379" y="1430"/>
      <point x="67" y="1128"/>
      <point x="67" y="694" type="curve" smooth="yes"/>
      <point x="67" y="248"/>
      <point x="373" y="-30"/>
    </contour>
  </outline>
</glyph>
<glyph name="E" format="2">
  <advance width="1300"/>
  <unicode hex="0045"/>
  <anchor x="667" y="0" name="bottom"/>
  <anchor x="1159" y="0" name="ogonek"/>
  <anchor x="667" y="1400" name="top"/>
  <anchor x="37" y="1400" name="topleft"/>
  <outline>
    <contour>
      <point x="153" y="0" type="line"/>
      <point x="1159" y="0" type="line"/>
      <point x="1239" y="352" type="line"/>
      <point x="557" y="352" type="line"/>
      <point x="557" y="552" type="line"/>
      <point x="1077" y="552" type="line"/>
      <point x="1077" y="870" type="line"/>
      <point x="557" y="870" type="line"/>
      <point x="557" y="1052" type="line"/>
      <point x="1191" y="1052" type="line"/>
      <point x="1191" y="1400" type="line"/>
      <point x="153" y="1400" type="line"/>
    </contour>
  </outline>
</glyph>
<glyph name="F" format="2">
  <advance width="1210"/>
  <unicode hex="0046"/>
  <outline>
    <contour>
      <point x="153" y="0" type="line"/>
      <point x="557" y="0" type="line"/>
      <point x="557" y="466" type="line"/>
      <point x="1051" y="466" type="line"/>
      <point x="1051" y="818" type="line"/>
      <point x="557" y="818" type="line"/>
      <point x="557" y="1032" type="line"/>
      <point x="1113" y="1032" type="line"/>
      <point x="1113" y="1400" type="line"/>
      <point x="153" y="1400" type="line"/>
    </contour>
  </outline>
</glyph>
<glyph name="J" format="2">
  <advance width="1094"/>
  <unicode hex="004A"/>
  <anchor x="741" y="1400" name="top"/>
  <outline>
    <contour>
      <point x="421" y="-30" type="curve" smooth="yes"/>
      <point x="753" y="-30"/>
      <point x="943" y="166"/>
      <point x="943" y="448" type="curve" smooth="yes"/>
      <point x="943" y="1400" type="line"/>
      <point x="539" y="1400" type="line"/>
      <point x="539" y="538" type="line" smooth="yes"/>
      <point x="539" y="400"/>
      <point x="471" y="338"/>
      <point x="363" y="338" type="curve" smooth="yes"/>
      <point x="275" y="338"/>
      <point x="183" y="366"/>
      <point x="71" y="418" type="curve"/>
      <point x="71" y="50" type="line"/>
      <point x="168" y="0"/>
      <point x="287" y="-30"/>
    </contour>
  </outline>
</glyph>
<glyph name="N" format="2">
  <advance width="1590"/>
  <unicode hex="004E"/>
  <anchor x="795" y="0" name="bottom"/>
  <anchor x="795" y="1400" name="top"/>
  <outline>
    <contour>
      <point x="153" y="0" type="line"/>
      <point x="543" y="0" type="line"/>
      <point x="543" y="764" type="line"/>
      <point x="1033" y="0" type="line"/>
      <point x="1437" y="0" type="line"/>
      <point x="1437" y="1400" type="line"/>
      <point x="1047" y="1400" type="line"/>
      <point x="1047" y="648" type="line"/>
      <point x="557" y="1400" type="line"/>
      <point x="153" y="1400" type="line"/>
    </contour>
  </outline>
</glyph>
<glyph name="U" format="2">
  <advance width="1536"/>
  <unicode hex="0055"/>
  <anchor x="768" y="0" name="bottom"/>
  <anchor x="1390" y="1400" name="horn"/>
  <anchor x="1184" y="0" name="ogonek"/>
  <anchor x="768" y="1400" name="top"/>
  <outline>
    <contour>
      <point x="768" y="-30" type="curve" smooth="yes"/>
      <point x="1174" y="-30"/>
      <point x="1390" y="226"/>
      <point x="1390" y="596" type="curve" smooth="yes"/>
      <point x="1390" y="1400" type="line"/>
      <point x="984" y="1400" type="line"/>
      <point x="984" y="574" type="line" smooth="yes"/>
      <point x="984" y="420"/>
      <point x="906" y="348"/>
      <point x="768" y="348" type="curve" smooth="yes"/>
      <point x="628" y="348"/>
      <point x="550" y="420"/>
      <point x="550" y="574" type="curve" smooth="yes"/>
      <point x="550" y="1400" type="line"/>
      <point x="146" y="1400" type="line"/>
      <point x="146" y="596" type="line" smooth="yes"/>
      <point x="146" y="224"/>
      <point x="362" y="-30"/>
    </contour>
  </outline>
</glyph>
<glyph name="V" format="2">
  <advance width="1434"/>
  <unicode hex="0056"/>
  <outline>
    <contour>
      <point x="481" y="0" type="line"/>
      <point x="951" y="0" type="line"/>
      <point x="1455" y="1400" type="line"/>
      <point x="1007" y="1400" type="line"/>
      <point x="721" y="504" type="line"/>
      <point x="435" y="1400" type="line"/>
      <point x="-21" y="1400" type="line"/>
    </contour>
  </outline>
</glyph>
<glyph name="Z" format="2">
  <advance width="1184"/>
  <unicode hex="005A"/>
  <anchor x="595" y="1400" name="top"/>
  <outline>
    <contour>
      <point x="67" y="0" type="line"/>
      <point x="1081" y="0" type="line"/>
      <point x="1161" y="368" type="line"/>
      <point x="561" y="368" type="line"/>
      <point x="1117" y="1066" type="line"/>
      <point x="1117" y="1400" type="line"/>
      <point x="91" y="1400" type="line"/>
      <point x="91" y="1032" type="line"/>
      <point x="627" y="1032" type="line"/>
      <point x="67" y="336" type="line"/>
    </contour>
  </outline>
</glyph>
<glyph name="bracketleft" format="2">
  <advance width="732"/>
  <unicode hex="005B"/>
  <outline>
    <contour>
      <point x="150" y="-220" type="line"/>
      <point x="666" y="-220" type="line"/>
      <point x="666" y="46" type="line"/>
      <point x="466" y="46" type="line"/>
      <point x="466" y="1334" type="line"/>
      <point x="666" y="1334" type="line"/>
      <point x="666" y="1600" type="line"/>
      <point x="150" y="1600" type="line"/>
    </contour>
  </outline>
</glyph>
<glyph name="backslash" format="2">
  <advance width="948"/>
  <unicode hex="005C"/>
  <outline>
    <contour>
      <point x="652" y="-220" type="line"/>
      <point x="1025" y="-220" type="line"/>
      <point x="296" y="1600" type="line"/>
      <point x="-77" y="1600" type="line"/>
    </contour>
  </outline>
</glyph>
<glyph name="f" format="2">
  <advance width="878"/>
  <unicode hex="0066"/>
  <outline>
    <contour>
      <point x="201" y="0" type="line"/>
      <point x="601" y="0" type="line"/>
      <point x="601" y="728" type="line"/>
      <point x="843" y="728" type="line"/>
      <point x="843" y="1040" type="line"/>
      <point x="601" y="1040" type="line"/>
      <point x="601" y="1064" type="line" smooth="yes"/>
      <point x="601" y="1114"/>
      <point x="637" y="1144"/>
      <point x="703" y="1144" type="curve" smooth="yes"/>
      <point x="747" y="1144"/>
      <point x="791" y="1138"/>
      <point x="843" y="1116" type="curve"/>
      <point x="843" y="1424" type="line"/>
      <point x="765" y="1458"/>
      <point x="689" y="1470"/>
      <point x="613" y="1470" type="curve" smooth="yes"/>
      <point x="345" y="1470"/>
      <point x="201" y="1318"/>
      <point x="201" y="1086" type="curve" smooth="yes"/>
    </contour>
    <contour>
      <point x="-3" y="728" type="line"/>
      <point x="241" y="728" type="line"/>
      <point x="241" y="1060" type="line"/>
      <point x="-3" y="808" type="line"/>
    </contour>
  </outline>
</glyph>
<glyph name="l" format="2">
  <advance width="650"/>
  <unicode hex="006C"/>
  <anchor x="325" y="0" name="bottom"/>
  <anchor x="525" y="1440" name="caron"/>
  <anchor x="325" y="1440" name="top"/>
  <outline>
    <contour>
      <point x="125" y="0" type="line"/>
      <point x="525" y="0" type="line"/>
      <point x="525" y="1480" type="line"/>
      <point x="125" y="1294" type="line"/>
    </contour>
  </outline>
</glyph>
<glyph name="v" format="2">
  <advance width="1172"/>
  <unicode hex="0076"/>
  <outline>
    <contour>
      <point x="361" y="0" type="line"/>
      <point x="829" y="0" type="line"/>
      <point x="1165" y="1040" type="line"/>
      <point x="749" y="1040" type="line"/>
      <point x="575" y="346" type="line"/>
      <point x="613" y="346" type="line"/>
      <point x="433" y="1040" type="line"/>
      <point x="7" y="1040" type="line"/>
    </contour>
  </outline>
</glyph>
<glyph name="x" format="2">
  <advance width="1334"/>
  <unicode hex="0078"/>
  <outline>
    <contour>
      <point x="17" y="-4" type="line"/>
      <point x="509" y="4" type="line"/>
      <point x="657" y="248" type="line"/>
      <point x="805" y="0" type="line"/>
      <point x="1317" y="0" type="line"/>
      <point x="949" y="512" type="line"/>
      <point x="1295" y="1040" type="line"/>
      <point x="799" y="1040" type="line"/>
      <point x="671" y="776" type="line"/>
      <point x="539" y="1040" type="line"/>
      <point x="35" y="1040" type="line"/>
      <point x="389" y="506" type="line"/>
    </contour>
  </outline>
</glyph>
<glyph name="sterling" format="2">
  <advance width="1296"/>
  <unicode hex="00A3"/>
  <outline>
    <contour>
      <point x="120" y="0" type="line"/>
      <point x="1188" y="0" type="line"/>
      <point x="1268" y="298" type="line"/>
      <point x="626" y="298" type="line"/>
      <point x="672" y="364"/>
      <point x="692" y="442"/>
      <point x="692" y="506" type="curve" smooth="yes"/>
      <point x="692" y="628"/>
      <point x="610" y="850"/>
      <point x="610" y="954" type="curve" smooth="yes"/>
      <point x="610" y="1056"/>
      <point x="666" y="1128"/>
      <point x="778" y="1128" type="curve" smooth="yes"/>
      <point x="880" y="1128"/>
      <point x="986" y="1100"/>
      <point x="1102" y="1008" type="curve"/>
      <point x="1102" y="1336" type="line"/>
      <point x="1010" y="1390"/>
      <point x="884" y="1430"/>
      <point x="770" y="1430" type="curve" smooth="yes"/>
      <point x="456" y="1430"/>
      <point x="238" y="1244"/>
      <point x="238" y="992" type="curve" smooth="yes"/>
      <point x="238" y="860"/>
      <point x="364" y="580"/>
      <point x="364" y="502" type="curve" smooth="yes"/>
      <point x="364" y="350"/>
      <point x="288" y="308"/>
      <point x="120" y="286" type="curve"/>
    </contour>
    <contour>
      <point x="100" y="560" type="line"/>
      <point x="1016" y="560" type="line"/>
      <point x="1016" y="810" type="line"/>
      <point x="100" y="810" type="line"/>
    </contour>
  </outline>
</glyph>
<glyph name="yen" format="2">
  <advance width="1296"/>
  <unicode hex="00A5"/>
  <outline>
    <contour>
      <point x="456" y="0" type="line"/>
      <point x="824" y="0" type="line"/>
      <point x="824" y="246" type="line"/>
      <point x="1182" y="246" type="line"/>
      <point x="1182" y="472" type="line"/>
      <point x="824" y="472" type="line"/>
      <point x="824" y="584" type="line"/>
      <point x="1182" y="584" type="line"/>
      <point x="1182" y="810" type="line"/>
      <point x="922" y="810" type="line"/>
      <point x="1310" y="1400" type="line"/>
      <point x="920" y="1400" type="line"/>
      <point x="646" y="932" type="line"/>
      <point x="390" y="1400" type="line"/>
      <point x="-14" y="1400" type="line"/>
      <point x="360" y="810" type="line"/>
      <point x="100" y="810" type="line"/>
      <point x="100" y="584" type="line"/>
      <point x="456" y="584" type="line"/>
      <point x="456" y="472" type="line"/>
      <point x="100" y="472" type="line"/>
      <point x="100" y="246" type="line"/>
      <point x="456" y="246" type="line"/>
    </contour>
  </outline>
</glyph>
<glyph name="section" format="2">
  <advance width="1416"/>
  <unicode hex="00A7"/>
  <outline>
    <contour>
      <point x="721" y="-450" type="curve" smooth="yes"/>
      <point x="1029" y="-450"/>
      <point x="1249" y="-294"/>
      <point x="1249" y="-50" type="curve" smooth="yes"/>
      <point x="1249" y="174"/>
      <point x="1115" y="288"/>
      <point x="797" y="350" type="curve" smooth="yes"/>
      <point x="611" y="386"/>
      <point x="517" y="428"/>
      <point x="517" y="514" type="curve" smooth="yes"/>
      <point x="517" y="618"/>
      <point x="625" y="666"/>
      <point x="745" y="666" type="curve"/>
      <point x="743" y="874" type="line"/>
      <point x="421" y="876"/>
      <point x="173" y="714"/>
      <point x="173" y="488" type="curve" smooth="yes"/>
      <point x="173" y="260"/>
      <point x="347" y="164"/>
      <point x="719" y="90" type="curve" smooth="yes"/>
      <point x="881" y="58"/>
      <point x="923" y="24"/>
      <point x="923" y="-40" type="curve" smooth="yes"/>
      <point x="923" y="-100"/>
      <point x="847" y="-142"/>
      <point x="733" y="-142" type="curve" smooth="yes"/>
      <point x="581" y="-142"/>
      <point x="407" y="-90"/>
      <point x="287" y="-8" type="curve"/>
      <point x="287" y="-344" type="line"/>
      <point x="405" y="-408"/>
      <point x="561" y="-450"/>
    </contour>
    <contour>
      <point x="755" y="112" type="line"/>
      <point x="1077" y="112"/>
      <point x="1327" y="266"/>
      <point x="1327" y="504" type="curve" smooth="yes"/>
      <point x="1327" y="720"/>
      <point x="1155" y="822"/>
      <point x="787" y="896" type="curve" smooth="yes"/>
      <point x="617" y="930"/>
      <point x="577" y="958"/>
      <point x="577" y="1024" type="curve" smooth="yes"/>
      <point x="577" y="1082"/>
      <point x="649" y="1122"/>
      <point x="757" y="1122" type="curve" smooth="yes"/>
      <point x="891" y="1122"/>
      <point x="1069" y="1070"/>
      <point x="1183" y="988" type="curve"/>
      <point x="1183" y="1326" type="line"/>
      <point x="1063" y="1394"/>
      <point x="913" y="1430"/>
      <point x="765" y="1430" type="curve" smooth="yes"/>
      <point x="465" y="1430"/>
      <point x="253" y="1272"/>
      <point x="253" y="1036" type="curve" smooth="yes"/>
      <point x="253" y="812"/>
      <point x="385" y="694"/>
      <point x="697" y="636" type="curve" smooth="yes"/>
      <point x="895" y="600"/>
      <point x="983" y="560"/>
      <point x="983" y="478" type="curve" smooth="yes"/>
      <point x="983" y="364"/>
      <point x="871" y="316"/>
      <point x="751" y="316" type="curve"/>
    </contour>
  </outline>
</glyph>
<glyph name="ordfeminine" format="2">
  <advance width="852"/>
  <unicode hex="00AA"/>
  <anchor x="409" y="722" name="bottom"/>
  <anchor x="753" y="722" name="ogonek"/>
  <anchor x="409" y="1398" name="top"/>
  <outline>
    <contour>
      <point x="313" y="702" type="curve" smooth="yes"/>
      <point x="409" y="702"/>
      <point x="489" y="734"/>
      <point x="531" y="788" type="curve"/>
      <point x="531" y="722" type="line"/>
      <point x="753" y="722" type="line"/>
      <point x="753" y="1126" type="line" smooth="yes"/>
      <point x="753" y="1336"/>
      <point x="621" y="1426"/>
      <point x="409" y="1426" type="curve" smooth="yes"/>
      <point x="279" y="1426"/>
      <point x="141" y="1380"/>
      <point x="43" y="1288" type="curve"/>
      <point x="139" y="1450" type="line"/>
      <point x="139" y="1170" type="line"/>
      <point x="199" y="1208"/>
      <point x="287" y="1230"/>
      <point x="357" y="1230" type="curve" smooth="yes"/>
      <point x="483" y="1230"/>
      <point x="505" y="1178"/>
      <point x="505" y="1122" type="curve" smooth="yes"/>
      <point x="505" y="984" type="line" smooth="yes"/>
      <point x="505" y="916"/>
      <point x="453" y="884"/>
      <point x="389" y="884" type="curve" smooth="yes"/>
      <point x="337" y="884"/>
      <point x="303" y="902"/>
      <point x="303" y="936" type="curve" smooth="yes"/>
      <point x="303" y="1004"/>
      <point x="417" y="1014"/>
      <point x="541" y="988" type="curve"/>
      <point x="541" y="1144" type="line"/>
      <point x="231" y="1168"/>
      <point x="69" y="1082"/>
      <point x="69" y="922" type="curve" smooth="yes"/>
      <point x="69" y="784"/>
      <point x="179" y="702"/>
    </contour>
  </outline>
</glyph>
<glyph name="registered" format="2">
  <advance width="1216"/>
  <unicode hex="00AE"/>
  <anchor x="634" y="706" name="bottom"/>
  <anchor x="608" y="982" name="center"/>
  <anchor x="608" y="1256" name="top"/>
  <outline>
    <contour>
      <point x="608" y="470" type="curve" smooth="yes"/>
      <point x="902" y="470"/>
      <point x="1132" y="692"/>
      <point x="1132" y="982" type="curve" smooth="yes"/>
      <point x="1132" y="1266"/>
      <point x="902" y="1492"/>
      <point x="608" y="1492" type="curve" smooth="yes"/>
      <point x="312" y="1492"/>
      <point x="84" y="1272"/>
      <point x="84" y="982" type="curve" smooth="yes"/>
      <point x="84" y="692"/>
      <point x="312" y="470"/>
    </contour>
    <contour>
      <point x="608" y="566" type="curve" smooth="yes"/>
      <point x="380" y="566"/>
      <point x="192" y="732"/>
      <point x="192" y="982" type="curve" smooth="yes"/>
      <point x="192" y="1230"/>
      <point x="382" y="1394"/>
      <point x="608" y="1394" type="curve" smooth="yes"/>
      <point x="834" y="1394"/>
      <point x="1024" y="1230"/>
      <point x="1024" y="982" type="curve" smooth="yes"/>
      <point x="1024" y="732"/>
      <point x="836" y="566"/>
    </contour>
    <contour>
      <point x="412" y="706" type="line"/>
      <point x="534" y="706" type="line"/>
      <point x="534" y="912" type="line"/>
      <point x="594" y="912" type="line"/>
      <point x="732" y="706" type="line"/>
      <point x="878" y="706" type="line"/>
      <point x="718" y="936" type="line"/>
      <point x="792" y="956"/>
      <point x="848" y="1008"/>
      <point x="848" y="1088" type="curve" smooth="yes"/>
      <point x="848" y="1194"/>
      <point x="764" y="1256"/>
      <point x="640" y="1256" type="curve" smooth="yes"/>
      <point x="412" y="1256" type="line"/>
    </contour>
    <contour>
      <point x="534" y="1010" type="line"/>
      <point x="534" y="1156" type="line"/>
      <point x="630" y="1156" type="line" smooth="yes"/>
      <point x="690" y="1156"/>
      <point x="724" y="1130"/>
      <point x="724" y="1082" type="curve" smooth="yes"/>
      <point x="724" y="1034"/>
      <point x="686" y="1010"/>
      <point x="624" y="1010" type="curve" smooth="yes"/>
    </contour>
  </outline>
</glyph>
<glyph name="twosuperior" format="2">
  <advance width="844"/>
  <unicode hex="00B2"/>
  <outline>
    <contour>
      <point x="78" y="722" type="line"/>
      <point x="740" y="722" type="line"/>
      <point x="792" y="934" type="line"/>
      <point x="418" y="934" type="line"/>
      <point x="480" y="990" type="line" smooth="yes"/>
      <point x="676" y="1166"/>
      <point x="740" y="1254"/>
      <point x="740" y="1366" type="curve" smooth="yes"/>
      <point x="740" y="1534"/>
      <point x="610" y="1652"/>
      <point x="402" y="1652" type="curve" smooth="yes"/>
      <point x="306" y="1652"/>
      <point x="203" y="1623"/>
      <point x="118" y="1572" type="curve"/>
      <point x="118" y="1348" type="line"/>
      <point x="180" y="1400"/>
      <point x="258" y="1434"/>
      <point x="350" y="1434" type="curve" smooth="yes"/>
      <point x="446" y="1434"/>
      <point x="500" y="1400"/>
      <point x="500" y="1332" type="curve" smooth="yes"/>
      <point x="500" y="1256"/>
      <point x="438" y="1198"/>
      <point x="276" y="1058" type="curve" smooth="yes"/>
      <point x="78" y="888" type="line"/>
    </contour>
  </outline>
</glyph>
<glyph name="threesuperior" format="2">
  <advance width="828"/>
  <unicode hex="00B3"/>
  <outline>
    <contour>
      <point x="376" y="702" type="curve" smooth="yes"/>
      <point x="588" y="702"/>
      <point x="740" y="826"/>
      <point x="740" y="994" type="curve" smooth="yes"/>
      <point x="740" y="1152"/>
      <point x="622" y="1244"/>
      <point x="502" y="1260" type="curve"/>
      <point x="698" y="1440" type="line"/>
      <point x="698" y="1632" type="line"/>
      <point x="100" y="1632" type="line"/>
      <point x="48" y="1422" type="line"/>
      <point x="410" y="1422" type="line"/>
      <point x="190" y="1258" type="line"/>
      <point x="258" y="1096" type="line"/>
      <point x="292" y="1106"/>
      <point x="334" y="1112"/>
      <point x="368" y="1112" type="curve" smooth="yes"/>
      <point x="444" y="1112"/>
      <point x="498" y="1076"/>
      <point x="498" y="1014" type="curve" smooth="yes"/>
      <point x="498" y="958"/>
      <point x="440" y="920"/>
      <point x="360" y="920" type="curve" smooth="yes"/>
      <point x="262" y="920"/>
      <point x="162" y="956"/>
      <point x="110" y="1014" type="curve"/>
      <point x="110" y="769" type="line"/>
      <point x="176" y="730"/>
      <point x="277" y="702"/>
    </contour>
  </outline>
</glyph>
<glyph name="paragraph" format="2">
  <advance width="1438"/>
  <unicode hex="00B6"/>
  <outline>
    <contour>
      <point x="555" y="-420" type="line"/>
      <point x="815" y="-420" type="line"/>
      <point x="815" y="1186" type="line"/>
      <point x="947" y="1186" type="line"/>
      <point x="947" y="-420" type="line"/>
      <point x="1207" y="-420" type="line"/>
      <point x="1207" y="1186" type="line"/>
      <point x="1411" y="1186" type="line"/>
      <point x="1411" y="1400" type="line"/>
      <point x="607" y="1400" type="line" smooth="yes"/>
      <point x="269" y="1400"/>
      <point x="37" y="1218"/>
      <point x="37" y="932" type="curve" smooth="yes"/>
      <point x="37" y="646"/>
      <point x="269" y="464"/>
      <point x="607" y="464" type="curve"/>
      <point x="555" y="510" type="line"/>
    </contour>
  </outline>
</glyph>
<glyph name="onesuperior" format="2">
  <advance width="638"/>
  <unicode hex="00B9"/>
  <outline>
    <contour>
      <point x="274" y="722" type="line"/>
      <point x="512" y="722" type="line"/>
      <point x="512" y="1652" type="line"/>
      <point x="496" y="1652" type="line"/>
      <point x="78" y="1512" type="line"/>
      <point x="78" y="1282" type="line"/>
      <point x="274" y="1344" type="line"/>
    </contour>
  </outline>
</glyph>
<glyph name="germandbls" format="2">
  <advance width="1440"/>
  <unicode hex="00DF"/>
  <outline>
    <contour>
      <point x="919" y="-28" type="curve" smooth="yes"/>
      <point x="1189" y="-28"/>
      <point x="1393" y="136"/>
      <point x="1393" y="356" type="curve" smooth="yes"/>
      <point x="1393" y="498"/>
      <point x="1295" y="588"/>
      <point x="1219" y="658" type="curve" smooth="yes"/>
      <point x="1171" y="700"/>
      <point x="1133" y="736"/>
      <point x="1133" y="772" type="curve" smooth="yes"/>
      <point x="1133" y="804"/>
      <point x="1152" y="840"/>
      <point x="1177" y="882" type="curve" smooth="yes"/>
      <point x="1214" y="944"/>
      <point x="1257" y="1022"/>
      <point x="1257" y="1122" type="curve" smooth="yes"/>
      <point x="1257" y="1328"/>
      <point x="1045" y="1470"/>
      <point x="733" y="1470" type="curve" smooth="yes"/>
      <point x="357" y="1470"/>
      <point x="125" y="1270"/>
      <point x="125" y="946" type="curve" smooth="yes"/>
      <point x="125" y="0" type="line"/>
      <point x="525" y="0" type="line"/>
      <point x="525" y="924" type="line" smooth="yes"/>
      <point x="525" y="1062"/>
      <point x="597" y="1144"/>
      <point x="721" y="1144" type="curve" smooth="yes"/>
      <point x="811" y="1144"/>
      <point x="873" y="1100"/>
      <point x="873" y="1028" type="curve" smooth="yes"/>
      <point x="873" y="984"/>
      <point x="843" y="936"/>
      <point x="811" y="886" type="curve" smooth="yes"/>
      <point x="777" y="830"/>
      <point x="741" y="772"/>
      <point x="741" y="712" type="curve" smooth="yes"/>
      <point x="741" y="618"/>
      <point x="815" y="556"/>
      <point x="881" y="500" type="curve" smooth="yes"/>
      <point x="933" y="456"/>
      <point x="979" y="416"/>
      <point x="979" y="368" type="curve" smooth="yes"/>
      <point x="979" y="304"/>
      <point x="925" y="264"/>
      <point x="841" y="264" type="curve" smooth="yes"/>
      <point x="781" y="264"/>
      <point x="715" y="286"/>
      <point x="641" y="330" type="curve"/>
      <point x="641" y="6" type="line"/>
      <point x="761" y="-18"/>
      <point x="851" y="-28"/>
    </contour>
  </outline>
</glyph>
<glyph name="dcroat" format="2">
  <advance width="1358"/>
  <unicode hex="0111"/>
  <anchor x="995" y="1224" name="bar"/>
  <anchor x="1233" y="1440" name="caron"/>
  <outline>
    <contour>
      <point x="555" y="1118" type="line"/>
      <point x="1355" y="1118" type="line"/>
      <point x="1355" y="1330" type="line"/>
      <point x="555" y="1330" type="line"/>
    </contour>
    <component base="d"/>
  </outline>
</glyph>
<glyph name="eogonek" format="2">
  <advance width="1217"/>
  <unicode hex="0119"/>
  <anchor x="593" y="0" name="bottom"/>
  <anchor x="1077" y="0" name="ogonek"/>
  <anchor x="613" y="1040" name="top"/>
  <outline>
    <contour>
      <point x="669" y="-30" type="curve" smooth="yes"/>
      <point x="794" y="-30"/>
      <point x="951" y="5"/>
      <point x="1057" y="55" type="curve"/>
      <point x="1057" y="362" type="line"/>
      <point x="937" y="298"/>
      <point x="817" y="270"/>
      <point x="677" y="270" type="curve" smooth="yes"/>
      <point x="525" y="270"/>
      <point x="415" y="326"/>
      <point x="405" y="408" type="curve"/>
      <point x="1155" y="408" type="line"/>
      <point x="1231" y="786"/>
      <point x="1003" y="1070"/>
      <point x="625" y="1070" type="curve" smooth="yes"/>
      <point x="287" y="1070"/>
      <point x="47" y="844"/>
      <point x="47" y="522" type="curve" smooth="yes"/>
      <point x="47" y="190"/>
      <point x="295" y="-30"/>
    </contour>
    <contour>
      <point x="431" y="668" type="line"/>
      <point x="437" y="740"/>
      <point x="511" y="790"/>
      <point x="613" y="790" type="curve" smooth="yes"/>
      <point x="711" y="790"/>
      <point x="779" y="740"/>
      <point x="779" y="668" type="curve"/>
    </contour>
    <contour>
      <point x="827" y="-450" type="curve" smooth="yes"/>
      <point x="899" y="-450"/>
      <point x="972" y="-432"/>
      <point x="1035" y="-400" type="curve"/>
      <point x="1035" y="-174" type="line"/>
      <point x="996" y="-204"/>
      <point x="943" y="-222"/>
      <point x="893" y="-222" type="curve" smooth="yes"/>
      <point x="843" y="-222"/>
      <point x="811" y="-192"/>
      <point x="811" y="-145" type="curve" smooth="yes"/>
      <point x="811" y="-68"/>
      <point x="896" y="-4"/>
      <point x="1027" y="42" type="curve"/>
      <point x="1023" y="141" type="line"/>
      <point x="758" y="95"/>
      <point x="577" y="-41"/>
      <point x="577" y="-219" type="curve" smooth="yes"/>
      <point x="577" y="-354"/>
      <point x="681" y="-450"/>
    </contour>
  </outline>
</glyph>
<glyph name="Eng" format="2">
  <advance width="1590"/>
  <unicode hex="014A"/>
  <outline>
    <contour>
      <point x="1065" y="-50" type="line"/>
      <point x="1065" y="622" type="line"/>
      <point x="557" y="1400" type="line"/>
      <point x="153" y="1400" type="line"/>
      <point x="153" y="0" type="line"/>
      <point x="543" y="0" type="line"/>
      <point x="543" y="764" type="line"/>
    </contour>
    <contour>
      <point x="1025" y="-450" type="curve" smooth="yes"/>
      <point x="1269" y="-450"/>
      <point x="1437" y="-280"/>
      <point x="1437" y="-36" type="curve" smooth="yes"/>
      <point x="1437" y="1400" type="line"/>
      <point x="1047" y="1400" type="line"/>
      <point x="1047" y="-40" type="line" smooth="yes"/>
      <point x="1047" y="-92"/>
      <point x="1011" y="-126"/>
      <point x="941" y="-126" type="curve" smooth="yes"/>
      <point x="887" y="-126"/>
      <point x="841" y="-118"/>
      <point x="791" y="-100" type="curve"/>
      <point x="791" y="-408" type="line"/>
      <point x="861" y="-440"/>
      <point x="923" y="-450"/>
    </contour>
  </outline>
</glyph>
<glyph name="Uogonek" format="2">
  <advance width="1536"/>
  <unicode hex="0172"/>
  <anchor x="768" y="1400" name="top"/>
  <outline>
    <contour>
      <point x="934" y="-450" type="curve" smooth="yes"/>
      <point x="1006" y="-450"/>
      <point x="1079" y="-432"/>
      <point x="1142" y="-400" type="curve"/>
      <point x="1142" y="-174" type="line"/>
      <point x="1103" y="-204"/>
      <point x="1050" y="-222"/>
      <point x="1000" y="-222" type="curve" smooth="yes"/>
      <point x="950" y="-222"/>
      <point x="918" y="-192"/>
      <point x="918" y="-145" type="curve" smooth="yes"/>
      <point x="918" y="-74"/>
      <point x="955" y="-15"/>
      <point x="1027" y="12" type="curve" smooth="yes"/>
      <point x="1265" y="100"/>
      <point x="1390" y="315"/>
      <point x="1390" y="596" type="curve" smooth="yes"/>
      <point x="1390" y="1400" type="line"/>
      <point x="984" y="1400" type="line"/>
      <point x="984" y="574" type="line" smooth="yes"/>
      <point x="984" y="420"/>
      <point x="906" y="348"/>
      <point x="768" y="348" type="curve" smooth="yes"/>
      <point x="628" y="348"/>
      <point x="550" y="420"/>
      <point x="550" y="574" type="curve" smooth="yes"/>
      <point x="550" y="1400" type="line"/>
      <point x="146" y="1400" type="line"/>
      <point x="146" y="596" type="line" smooth="yes"/>
      <point x="146" y="233"/>
      <point x="352" y="-18"/>
      <point x="739" y="-30" type="curve"/>
      <point x="703" y="-84"/>
      <point x="684" y="-148"/>
      <point x="684" y="-219" type="curve" smooth="yes"/>
      <point x="684" y="-354"/>
      <point x="788" y="-450"/>
    </contour>
  </outline>
</glyph>
<glyph name="acutecomb" format="2">
  <unicode hex="0301"/>
  <anchor x="210" y="1040" name="_top"/>
  <outline>
    <contour>
      <point x="10" y="1170" type="line"/>
      <point x="368" y="1170" type="line"/>
      <point x="602" y="1544" type="line"/>
      <point x="208" y="1544" type="line"/>
    </contour>
  </outline>
</glyph>
<glyph name="brevecomb" format="2">
  <unicode hex="0306"/>
  <anchor x="448" y="1040" name="_top"/>
  <anchor x="448" y="1484" name="top"/>
  <outline>
    <contour>
      <point x="448" y="1160" type="curve" smooth="yes"/>
      <point x="710" y="1160"/>
      <point x="890" y="1318"/>
      <point x="886" y="1544" type="curve"/>
      <point x="566" y="1544" type="line"/>
      <point x="570" y="1462"/>
      <point x="524" y="1410"/>
      <point x="448" y="1410" type="curve" smooth="yes"/>
      <point x="372" y="1410"/>
      <point x="326" y="1462"/>
      <point x="330" y="1544" type="curve"/>
      <point x="10" y="1544" type="line"/>
      <point x="6" y="1314"/>
      <point x="180" y="1160"/>
    </contour>
  </outline>
</glyph>
<glyph name="dotaccentcomb" format="2">
  <unicode hex="0307"/>
  <anchor x="240" y="1040" name="_top"/>
  <anchor x="240" y="1484" name="top"/>
  <outline>
    <contour>
      <point x="240" y="1174" type="curve" smooth="yes"/>
      <point x="364" y="1174"/>
      <point x="470" y="1254"/>
      <point x="470" y="1386" type="curve" smooth="yes"/>
      <point x="470" y="1518"/>
      <point x="364" y="1598"/>
      <point x="240" y="1598" type="curve" smooth="yes"/>
      <point x="116" y="1598"/>
      <point x="10" y="1518"/>
      <point x="10" y="1386" type="curve" smooth="yes"/>
      <point x="10" y="1254"/>
      <point x="116" y="1174"/>
    </contour>
  </outline>
</glyph>
<glyph name="dieresiscomb" format="2">
  <unicode hex="0308"/>
  <anchor x="494" y="1040" name="_top"/>
  <anchor x="494" y="1484" name="top"/>
  <outline>
    <contour>
      <point x="220" y="1170" type="curve" smooth="yes"/>
      <point x="328" y="1170"/>
      <point x="430" y="1248"/>
      <point x="430" y="1374" type="curve" smooth="yes"/>
      <point x="430" y="1500"/>
      <point x="328" y="1578"/>
      <point x="220" y="1578" type="curve" smooth="yes"/>
      <point x="112" y="1578"/>
      <point x="10" y="1500"/>
      <point x="10" y="1374" type="curve" smooth="yes"/>
      <point x="10" y="1248"/>
      <point x="112" y="1170"/>
    </contour>
    <contour>
      <point x="768" y="1170" type="curve" smooth="yes"/>
      <point x="876" y="1170"/>
      <point x="978" y="1248"/>
      <point x="978" y="1374" type="curve" smooth="yes"/>
      <point x="978" y="1500"/>
      <point x="876" y="1578"/>
      <point x="768" y="1578" type="curve" smooth="yes"/>
      <point x="660" y="1578"/>
      <point x="558" y="1500"/>
      <point x="558" y="1374" type="curve" smooth="yes"/>
      <point x="558" y="1248"/>
      <point x="660" y="1170"/>
    </contour>
  </outline>
</glyph>
<glyph name="hookabovecomb" format="2">
  <unicode hex="0309"/>
  <anchor x="280" y="1040" name="_top"/>
  <outline>
    <contour>
      <point x="156" y="1170" type="curve"/>
      <point x="396" y="1170" type="line"/>
      <point x="374" y="1212"/>
      <point x="384" y="1234"/>
      <point x="456" y="1272" type="curve" smooth="yes"/>
      <point x="548" y="1320"/>
      <point x="578" y="1368"/>
      <point x="578" y="1446" type="curve" smooth="yes"/>
      <point x="578" y="1562"/>
      <point x="464" y="1634"/>
      <point x="280" y="1634" type="curve" smooth="yes"/>
      <point x="186" y="1634"/>
      <point x="80" y="1612"/>
      <point x="10" y="1576" type="curve"/>
      <point x="10" y="1388" type="line"/>
      <point x="68" y="1412"/>
      <point x="122" y="1426"/>
      <point x="202" y="1426" type="curve" smooth="yes"/>
      <point x="242" y="1426"/>
      <point x="274" y="1414"/>
      <point x="274" y="1392" type="curve" smooth="yes"/>
      <point x="274" y="1370"/>
      <point x="262" y="1362"/>
      <point x="214" y="1346" type="curve" smooth="yes"/>
      <point x="126" y="1316"/>
      <point x="104" y="1258"/>
    </contour>
  </outline>
</glyph>
<glyph name="commaturnedabovecomb" format="2">
  <unicode hex="0312"/>
  <anchor x="257" y="1040" name="_top"/>
  <outline>
    <contour>
      <point x="269" y="1174" type="curve" smooth="yes"/>
      <point x="394" y="1174"/>
      <point x="480" y="1254"/>
      <point x="480" y="1380" type="curve" smooth="yes"/>
      <point x="480" y="1509"/>
      <point x="357" y="1584"/>
      <point x="243" y="1560" type="curve"/>
      <point x="268" y="1645"/>
      <point x="366" y="1675"/>
      <point x="485" y="1685" type="curve"/>
      <point x="485" y="1882" type="line"/>
      <point x="161" y="1854"/>
      <point x="10" y="1675"/>
      <point x="10" y="1438" type="curve" smooth="yes"/>
      <point x="10" y="1270"/>
      <point x="131" y="1174"/>
    </contour>
  </outline>
</glyph>
<glyph name="dieresisbelowcomb" format="2">
  <unicode hex="0324"/>
  <anchor x="494" y="0" name="_bottom"/>
  <outline>
    <contour>
      <point x="768" y="-538" type="curve" smooth="yes"/>
      <point x="876" y="-538"/>
      <point x="978" y="-460"/>
      <point x="978" y="-334" type="curve" smooth="yes"/>
      <point x="978" y="-208"/>
      <point x="876" y="-130"/>
      <point x="768" y="-130" type="curve" smooth="yes"/>
      <point x="660" y="-130"/>
      <point x="558" y="-208"/>
      <point x="558" y="-334" type="curve" smooth="yes"/>
      <point x="558" y="-460"/>
      <point x="660" y="-538"/>
    </contour>
    <contour>
      <point x="220" y="-538" type="curve" smooth="yes"/>
      <point x="328" y="-538"/>
      <point x="430" y="-460"/>
      <point x="430" y="-334" type="curve" smooth="yes"/>
      <point x="430" y="-208"/>
      <point x="328" y="-130"/>
      <point x="220" y="-130" type="curve" smooth="yes"/>
      <point x="112" y="-130"/>
      <point x="10" y="-208"/>
      <point x="10" y="-334" type="curve" smooth="yes"/>
      <point x="10" y="-460"/>
      <point x="112" y="-538"/>
    </contour>
  </outline>
</glyph>
<glyph name="commaaccentcomb" format="2">
  <unicode hex="0326"/>
  <anchor x="238" y="0" name="_bottom"/>
  <outline>
    <contour>
      <point x="10" y="-842" type="line"/>
      <point x="334" y="-814"/>
      <point x="485" y="-635"/>
      <point x="485" y="-398" type="curve" smooth="yes"/>
      <point x="485" y="-230"/>
      <point x="364" y="-134"/>
      <point x="226" y="-134" type="curve" smooth="yes"/>
      <point x="101" y="-134"/>
      <point x="15" y="-214"/>
      <point x="15" y="-340" type="curve" smooth="yes"/>
      <point x="15" y="-469"/>
      <point x="138" y="-544"/>
      <point x="252" y="-520" type="curve"/>
      <point x="227" y="-605"/>
      <point x="129" y="-635"/>
      <point x="10" y="-645" type="curve"/>
    </contour>
  </outline>
</glyph>
<glyph name="cedillacomb" format="2">
  <unicode hex="0327"/>
  <anchor x="300" y="0" name="_bottom"/>
  <outline>
    <contour>
      <point x="274" y="-450" type="curve" smooth="yes"/>
      <point x="448" y="-450"/>
      <point x="610" y="-386"/>
      <point x="610" y="-242" type="curve" smooth="yes"/>
      <point x="610" y="-130"/>
      <point x="518" y="-68"/>
      <point x="366" y="-52" type="curve"/>
      <point x="396" y="40" type="line"/>
      <point x="192" y="40" type="line"/>
      <point x="136" y="-84" type="line"/>
      <point x="208" y="-218" type="line"/>
      <point x="290" y="-206"/>
      <point x="378" y="-218"/>
      <point x="378" y="-242" type="curve" smooth="yes"/>
      <point x="378" y="-258"/>
      <point x="328" y="-268"/>
      <point x="260" y="-268" type="curve" smooth="yes"/>
      <point x="190" y="-268"/>
      <point x="78" y="-252"/>
      <point x="10" y="-208" type="curve"/>
      <point x="10" y="-384" type="line"/>
      <point x="84" y="-426"/>
      <point x="172" y="-450"/>
    </contour>
  </outline>
</glyph>
<glyph name="strokeshortcomb" format="2">
  <unicode hex="0335"/>
  <anchor x="410" y="534" name="_bar"/>
  <outline>
    <contour>
      <point x="10" y="428" type="line"/>
      <point x="810" y="428" type="line"/>
      <point x="810" y="640" type="line"/>
      <point x="10" y="640" type="line"/>
    </contour>
  </outline>
</glyph>
<glyph name="Theta" format="2">
  <advance width="1642"/>
  <unicode hex="0398"/>
  <outline>
    <contour>
      <point x="821" y="-30" type="curve" smooth="yes"/>
      <point x="1257" y="-30"/>
      <point x="1575" y="286"/>
      <point x="1575" y="700" type="curve" smooth="yes"/>
      <point x="1575" y="1108"/>
      <point x="1257" y="1430"/>
      <point x="821" y="1430" type="curve" smooth="yes"/>
      <point x="383" y="1430"/>
      <point x="67" y="1116"/>
      <point x="67" y="700" type="curve" smooth="yes"/>
      <point x="67" y="286"/>
      <point x="383" y="-30"/>
    </contour>
    <contour>
      <point x="591" y="556" type="line"/>
      <point x="1021" y="556" type="line"/>
      <point x="1021" y="836" type="line"/>
      <point x="651" y="836" type="line"/>
    </contour>
    <contour>
      <point x="821" y="340" type="curve" smooth="yes"/>
      <point x="607" y="340"/>
      <point x="481" y="476"/>
      <point x="481" y="700" type="curve" smooth="yes"/>
      <point x="481" y="924"/>
      <point x="607" y="1060"/>
      <point x="821" y="1060" type="curve" smooth="yes"/>
      <point x="1035" y="1060"/>
      <point x="1161" y="924"/>
      <point x="1161" y="700" type="curve" smooth="yes"/>
      <point x="1161" y="476"/>
      <point x="1035" y="340"/>
    </contour>
  </outline>
</glyph>
<glyph name="Xi" format="2">
  <advance width="1274"/>
  <unicode hex="039E"/>
  <outline>
    <contour>
      <point x="81" y="0" type="line"/>
      <point x="1133" y="0" type="line"/>
      <point x="1213" y="352" type="line"/>
      <point x="81" y="352" type="line"/>
    </contour>
    <contour>
      <point x="189" y="548" type="line"/>
      <point x="1031" y="548" type="line"/>
      <point x="1031" y="866" type="line"/>
      <point x="259" y="866" type="line"/>
    </contour>
    <contour>
      <point x="61" y="1052" type="line"/>
      <point x="1153" y="1052" type="line"/>
      <point x="1153" y="1400" type="line"/>
      <point x="141" y="1400" type="line"/>
    </contour>
  </outline>
</glyph>
<glyph name="Omega" format="2">
  <advance width="1662"/>
  <unicode hex="03A9"/>
  <anchor x="831" y="0" name="bottom"/>
  <anchor x="99" y="1400" name="topleft"/>
  <outline>
    <contour>
      <point x="47" y="0" type="line"/>
      <point x="761" y="0" type="line"/>
      <point x="761" y="344" type="line"/>
      <point x="585" y="444"/>
      <point x="511" y="552"/>
      <point x="511" y="728" type="curve" smooth="yes"/>
      <point x="511" y="936"/>
      <point x="629" y="1052"/>
      <point x="831" y="1052" type="curve" smooth="yes"/>
      <point x="1033" y="1052"/>
      <point x="1151" y="936"/>
      <point x="1151" y="728" type="curve" smooth="yes"/>
      <point x="1151" y="552"/>
      <point x="1077" y="444"/>
      <point x="901" y="344" type="curve"/>
      <point x="901" y="0" type="line"/>
      <point x="1575" y="0" type="line"/>
      <point x="1655" y="350" type="line"/>
      <point x="1291" y="350" type="line"/>
      <point x="1451" y="448"/>
      <point x="1575" y="560"/>
      <point x="1575" y="828" type="curve" smooth="yes"/>
      <point x="1575" y="1184"/>
      <point x="1277" y="1430"/>
      <point x="831" y="1430" type="curve" smooth="yes"/>
      <point x="385" y="1430"/>
      <point x="87" y="1184"/>
      <point x="87" y="828" type="curve" smooth="yes"/>
      <point x="87" y="560"/>
      <point x="245" y="414"/>
      <point x="371" y="350" type="curve"/>
      <point x="47" y="350" type="line"/>
    </contour>
  </outline>
</glyph>
<glyph name="gamma" format="2">
  <advance width="1241"/>
  <unicode hex="03B3"/>
  <outline>
    <contour>
      <point x="395" y="-420" type="line"/>
      <point x="795" y="-420" type="line"/>
      <point x="795" y="-20" type="line"/>
      <point x="1017" y="304"/>
      <point x="1143" y="692"/>
      <point x="1199" y="1040" type="curve"/>
      <point x="783" y="1040" type="line"/>
      <point x="745" y="786"/>
      <point x="679" y="456"/>
      <point x="557" y="276" type="curve"/>
      <point x="669" y="190" type="line"/>
      <point x="433" y="1040" type="line"/>
      <point x="7" y="1040" type="line"/>
      <point x="395" y="-52" type="line"/>
    </contour>
  </outline>
</glyph>
<glyph name="epsilon" format="2">
  <advance width="1060"/>
  <unicode hex="03B5"/>
  <anchor x="563" y="1040" name="top"/>
  <outline>
    <contour>
      <point x="575" y="-30" type="curve" smooth="yes"/>
      <point x="740" y="-30"/>
      <point x="879" y="-2"/>
      <point x="993" y="52" type="curve"/>
      <point x="993" y="360" type="line"/>
      <point x="875" y="303"/>
      <point x="754" y="276"/>
      <point x="623" y="276" type="curve" smooth="yes"/>
      <point x="520" y="276"/>
      <point x="463" y="297"/>
      <point x="463" y="346" type="curve" smooth="yes"/>
      <point x="463" y="389"/>
      <point x="504" y="404"/>
      <point x="589" y="404" type="curve" smooth="yes"/>
      <point x="747" y="404" type="line"/>
      <point x="747" y="652" type="line"/>
      <point x="573" y="652" type="line" smooth="yes"/>
      <point x="495" y="652"/>
      <point x="461" y="667"/>
      <point x="461" y="703" type="curve" smooth="yes"/>
      <point x="461" y="748"/>
      <point x="521" y="772"/>
      <point x="627" y="772" type="curve" smooth="yes"/>
      <point x="751" y="772"/>
      <point x="869" y="741"/>
      <point x="959" y="684" type="curve"/>
      <point x="959" y="1005" type="line"/>
      <point x="845" y="1051"/>
      <point x="728" y="1070"/>
      <point x="577" y="1070" type="curve" smooth="yes"/>
      <point x="278" y="1070"/>
      <point x="87" y="952"/>
      <point x="87" y="776" type="curve" smooth="yes"/>
      <point x="87" y="667"/>
      <point x="149" y="591"/>
      <point x="265" y="546" type="curve"/>
      <point x="137" y="502"/>
      <point x="67" y="412"/>
      <point x="67" y="300" type="curve" smooth="yes"/>
      <point x="67" y="91"/>
      <point x="259" y="-30"/>
    </contour>
  </outline>
</glyph>
<glyph name="kappa" format="2">
  <advance width="1258"/>
  <unicode hex="03BA"/>
  <outline>
    <contour>
      <point x="125" y="0" type="line"/>
      <point x="525" y="0" type="line"/>
      <point x="525" y="320" type="line"/>
      <point x="597" y="382" type="line"/>
      <point x="777" y="0" type="line"/>
      <point x="1217" y="0" type="line"/>
      <point x="875" y="616" type="line"/>
      <point x="927" y="656" type="line" smooth="yes"/>
      <point x="987" y="702"/>
      <point x="1051" y="728"/>
      <point x="1141" y="730" type="curve"/>
      <point x="1141" y="1066" type="line"/>
      <point x="927" y="1094"/>
      <point x="821" y="1020"/>
      <point x="703" y="914" type="curve" smooth="yes"/>
      <point x="525" y="756" type="line"/>
      <point x="525" y="1100" type="line"/>
      <point x="125" y="914" type="line"/>
    </contour>
  </outline>
</glyph>
<glyph name="lambda" format="2">
  <advance width="1260"/>
  <unicode hex="03BB"/>
  <outline>
    <contour>
      <point x="7" y="0" type="line"/>
      <point x="427" y="0" type="line"/>
      <point x="627" y="638" type="line"/>
      <point x="819" y="0" type="line"/>
      <point x="1253" y="0" type="line"/>
      <point x="833" y="1118" type="line" smooth="yes"/>
      <point x="731" y="1389"/>
      <point x="581" y="1470"/>
      <point x="357" y="1470" type="curve" smooth="yes"/>
      <point x="273" y="1470"/>
      <point x="159" y="1456"/>
      <point x="113" y="1438" type="curve"/>
      <point x="111" y="1104" type="line"/>
      <point x="181" y="1124"/>
      <point x="247" y="1132"/>
      <point x="301" y="1132" type="curve" smooth="yes"/>
      <point x="363" y="1132"/>
      <point x="421" y="1114"/>
      <point x="435" y="1056" type="curve" smooth="yes"/>
      <point x="439" y="1040" type="line"/>
    </contour>
  </outline>
</glyph>
<glyph name="psi" format="2">
  <advance width="1707"/>
  <unicode hex="03C8"/>
  <outline>
    <contour>
      <point x="651" y="-420" type="line"/>
      <point x="1051" y="-420" type="line"/>
      <point x="1051" y="-30" type="line"/>
      <point x="1418" y="-28"/>
      <point x="1625" y="161"/>
      <point x="1625" y="526" type="curve" smooth="yes"/>
      <point x="1625" y="701"/>
      <point x="1587" y="898"/>
      <point x="1526" y="1040" type="curve"/>
      <point x="1128" y="1040" type="line"/>
      <point x="1187" y="925"/>
      <point x="1231" y="718"/>
      <point x="1231" y="555" type="curve" smooth="yes"/>
      <point x="1231" y="399"/>
      <point x="1163" y="310"/>
      <point x="1043" y="310" type="curve"/>
      <point x="1043" y="1280" type="line"/>
      <point x="659" y="1280" type="line"/>
      <point x="659" y="310" type="line"/>
      <point x="555" y="310"/>
      <point x="491" y="358"/>
      <point x="491" y="550" type="curve" smooth="yes"/>
      <point x="491" y="1100" type="line"/>
      <point x="105" y="914" type="line"/>
      <point x="105" y="544" type="line" smooth="yes"/>
      <point x="105" y="166"/>
      <point x="249" y="-30"/>
      <point x="651" y="-30" type="curve"/>
    </contour>
  </outline>
</glyph>
<glyph name="KaiSymbol" format="2">
  <advance width="1516"/>
  <unicode hex="03CF"/>
  <outline>
    <contour>
      <point x="779" y="-420" type="line"/>
      <point x="1259" y="-420" type="line"/>
      <point x="1529" y="0" type="line"/>
      <point x="947" y="750" type="line"/>
      <point x="1469" y="1400" type="line"/>
      <point x="963" y="1400" type="line"/>
      <point x="557" y="882" type="line"/>
      <point x="557" y="1400" type="line"/>
      <point x="153" y="1400" type="line"/>
      <point x="153" y="0" type="line"/>
      <point x="557" y="0" type="line"/>
      <point x="557" y="312" type="line"/>
      <point x="681" y="446" type="line"/>
      <point x="1033" y="-32" type="line"/>
    </contour>
  </outline>
</glyph>
<glyph name="kaiSymbol" format="2">
  <advance width="1258"/>
  <unicode hex="03D7"/>
  <outline>
    <contour>
      <point x="543" y="-430" type="line"/>
      <point x="865" y="-478"/>
      <point x="1010" y="-401"/>
      <point x="1254" y="-64" type="curve"/>
      <point x="875" y="616" type="line"/>
      <point x="927" y="656" type="line" smooth="yes"/>
      <point x="987" y="702"/>
      <point x="1051" y="728"/>
      <point x="1141" y="730" type="curve"/>
      <point x="1141" y="1066" type="line"/>
      <point x="927" y="1094"/>
      <point x="821" y="1020"/>
      <point x="703" y="914" type="curve" smooth="yes"/>
      <point x="525" y="756" type="line"/>
      <point x="525" y="1100" type="line"/>
      <point x="125" y="914" type="line"/>
      <point x="125" y="0" type="line"/>
      <point x="525" y="0" type="line"/>
      <point x="525" y="320" type="line"/>
      <point x="597" y="382" type="line"/>
      <point x="787" y="-22" type="line"/>
      <point x="711" y="-96"/>
      <point x="675" y="-114"/>
      <point x="543" y="-110" type="curve"/>
    </contour>
  </outline>
</glyph>
<glyph name="Dje-cy" format="2">
  <advance width="1670"/>
  <unicode hex="0402"/>
  <outline>
    <contour>
      <point x="385" y="0" type="line"/>
      <point x="791" y="0" type="line"/>
      <point x="791" y="1040" type="line"/>
      <point x="1347" y="1040" type="line"/>
      <point x="1347" y="1400" type="line"/>
      <point x="65" y="1400" type="line"/>
      <point x="-13" y="1040" type="line"/>
      <point x="385" y="1040" type="line"/>
    </contour>
    <contour>
      <point x="1205" y="-334" type="line"/>
      <point x="1487" y="-188"/>
      <point x="1623" y="88"/>
      <point x="1623" y="350" type="curve" smooth="yes"/>
      <point x="1623" y="654"/>
      <point x="1411" y="900"/>
      <point x="1023" y="900" type="curve" smooth="yes"/>
      <point x="925" y="900"/>
      <point x="823" y="888"/>
      <point x="717" y="856" type="curve"/>
      <point x="721" y="532" type="line"/>
      <point x="795" y="556"/>
      <point x="853" y="568"/>
      <point x="933" y="568" type="curve" smooth="yes"/>
      <point x="1103" y="568"/>
      <point x="1215" y="454"/>
      <point x="1215" y="318" type="curve" smooth="yes"/>
      <point x="1215" y="184"/>
      <point x="1147" y="52"/>
      <point x="1005" y="-32" type="curve"/>
    </contour>
  </outline>
</glyph>
<glyph name="E-cy" format="2">
  <advance width="1313"/>
  <unicode hex="0404"/>
  <outline>
    <contour>
      <point x="809" y="-30" type="curve" smooth="yes"/>
      <point x="985" y="-30"/>
      <point x="1127" y="4"/>
      <point x="1239" y="56" type="curve"/>
      <point x="1239" y="456" type="line"/>
      <point x="1113" y="372"/>
      <point x="965" y="334"/>
      <point x="829" y="334" type="curve" smooth="yes"/>
      <point x="589" y="334"/>
      <point x="451" y="472"/>
      <point x="451" y="700" type="curve" smooth="yes"/>
      <point x="451" y="924"/>
      <point x="583" y="1066"/>
      <point x="825" y="1066" type="curve" smooth="yes"/>
      <point x="979" y="1066"/>
      <point x="1109" y="1022"/>
      <point x="1195" y="934" type="curve"/>
      <point x="1195" y="1350" type="line"/>
      <point x="1095" y="1402"/>
      <point x="977" y="1430"/>
      <point x="815" y="1430" type="curve" smooth="yes"/>
      <point x="379" y="1430"/>
      <point x="67" y="1128"/>
      <point x="67" y="694" type="curve" smooth="yes"/>
      <point x="67" y="248"/>
      <point x="373" y="-30"/>
    </contour>
    <contour>
      <point x="341" y="562" type="line"/>
      <point x="1035" y="562" type="line"/>
      <point x="1035" y="864" type="line"/>
      <point x="341" y="864" type="line"/>
    </contour>
  </outline>
</glyph>
<glyph name="Ge-cy" format="2">
  <advance width="1080"/>
  <unicode hex="0413"/>
  <anchor x="437" y="644" name="bar"/>
  <anchor x="557" y="0" name="descender"/>
  <anchor x="603" y="1400" name="top"/>
  <outline>
    <contour>
      <point x="153" y="0" type="line"/>
      <point x="557" y="0" type="line"/>
      <point x="557" y="1032" type="line"/>
      <point x="1053" y="1032" type="line"/>
      <point x="1053" y="1400" type="line"/>
      <point x="153" y="1400" type="line"/>
    </contour>
  </outline>
</glyph>
<glyph name="Ka-cy" format="2">
  <advance width="1516"/>
  <unicode hex="041A"/>
  <anchor x="1389" y="0" name="descender"/>
  <anchor x="761" y="1400" name="top"/>
  <outline>
    <contour>
      <point x="1011" y="0" type="line"/>
      <point x="1529" y="0" type="line"/>
      <point x="947" y="714" type="line"/>
      <point x="1469" y="1400" type="line"/>
      <point x="963" y="1400" type="line"/>
      <point x="455" y="714" type="line"/>
    </contour>
    <contour>
      <point x="153" y="0" type="line"/>
      <point x="557" y="0" type="line"/>
      <point x="557" y="538" type="line"/>
      <point x="825" y="538" type="line"/>
      <point x="825" y="906" type="line"/>
      <point x="557" y="906" type="line"/>
      <point x="557" y="1400" type="line"/>
      <point x="153" y="1400" type="line"/>
    </contour>
  </outline>
</glyph>
<glyph name="El-cy" format="2">
  <advance width="1562"/>
  <unicode hex="041B"/>
  <outline>
    <contour>
      <point x="61" y="-20" type="line"/>
      <point x="391" y="-68"/>
      <point x="663" y="62"/>
      <point x="663" y="420" type="curve" smooth="yes"/>
      <point x="663" y="1032" type="line"/>
      <point x="1005" y="1032" type="line"/>
      <point x="1005" y="0" type="line"/>
      <point x="1409" y="0" type="line"/>
      <point x="1409" y="1400" type="line"/>
      <point x="283" y="1400" type="line"/>
      <point x="283" y="504" type="line" smooth="yes"/>
      <point x="283" y="340"/>
      <point x="165" y="304"/>
      <point x="61" y="312" type="curve"/>
    </contour>
  </outline>
</glyph>
<glyph name="Pe-cy" format="2">
  <advance width="1582"/>
  <unicode hex="041F"/>
  <anchor x="791" y="1400" name="top"/>
  <outline>
    <contour>
      <point x="153" y="0" type="line"/>
      <point x="557" y="0" type="line"/>
      <point x="557" y="1032" type="line"/>
      <point x="1025" y="1032" type="line"/>
      <point x="1025" y="0" type="line"/>
      <point x="1429" y="0" type="line"/>
      <point x="1429" y="1400" type="line"/>
      <point x="153" y="1400" type="line"/>
    </contour>
  </outline>
</glyph>
<glyph name="U-cy" format="2">
  <advance width="1386"/>
  <unicode hex="0423"/>
  <anchor x="737" y="1400" name="top"/>
  <outline>
    <contour>
      <point x="121" y="-30" type="line"/>
      <point x="531" y="-56"/>
      <point x="756" y="78"/>
      <point x="973" y="512" type="curve" smooth="yes"/>
      <point x="1417" y="1400" type="line"/>
      <point x="949" y="1400" type="line"/>
      <point x="665" y="786" type="line" smooth="yes"/>
      <point x="523" y="470"/>
      <point x="405" y="326"/>
      <point x="121" y="368" type="curve"/>
    </contour>
    <contour>
      <point x="585" y="354" type="line"/>
      <point x="859" y="688" type="line"/>
      <point x="529" y="1400" type="line"/>
      <point x="41" y="1400" type="line"/>
    </contour>
  </outline>
</glyph>
<glyph name="Ereversed-cy" format="2">
  <advance width="1313"/>
  <unicode hex="042D"/>
  <anchor x="546" y="0" name="bottom"/>
  <anchor x="546" y="1400" name="top"/>
  <outline>
    <contour>
      <point x="496" y="-30" type="curve" smooth="yes"/>
      <point x="954" y="-30"/>
      <point x="1246" y="254"/>
      <point x="1246" y="710" type="curve" smooth="yes"/>
      <point x="1246" y="1136"/>
      <point x="960" y="1430"/>
      <point x="514" y="1430" type="curve" smooth="yes"/>
      <point x="366" y="1430"/>
      <point x="232" y="1396"/>
      <point x="122" y="1340" type="curve"/>
      <point x="122" y="952" type="line"/>
      <point x="220" y="1026"/>
      <point x="356" y="1066"/>
      <point x="520" y="1066" type="curve" smooth="yes"/>
      <point x="740" y="1066"/>
      <point x="862" y="948"/>
      <point x="862" y="710" type="curve" smooth="yes"/>
      <point x="862" y="456"/>
      <point x="730" y="336"/>
      <point x="506" y="336" type="curve" smooth="yes"/>
      <point x="360" y="336"/>
      <point x="208" y="370"/>
      <point x="74" y="444" type="curve"/>
      <point x="74" y="60" type="line"/>
      <point x="192" y="6"/>
      <point x="342" y="-30"/>
    </contour>
    <contour>
      <point x="248" y="562" type="line"/>
      <point x="974" y="562" type="line"/>
      <point x="974" y="864" type="line"/>
      <point x="312" y="864" type="line"/>
    </contour>
  </outline>
</glyph>
<glyph name="ve-cy" format="2">
  <advance width="1207"/>
  <unicode hex="0432"/>
  <outline>
    <contour>
      <point x="125" y="0" type="line"/>
      <point x="683" y="0" type="line" smooth="yes"/>
      <point x="969" y="0"/>
      <point x="1147" y="132"/>
      <point x="1147" y="326" type="curve" smooth="yes"/>
      <point x="1147" y="496"/>
      <point x="1003" y="602"/>
      <point x="789" y="614" type="curve"/>
      <point x="803" y="524" type="line"/>
      <point x="963" y="542"/>
      <point x="1101" y="614"/>
      <point x="1101" y="774" type="curve" smooth="yes"/>
      <point x="1101" y="954"/>
      <point x="937" y="1040"/>
      <point x="687" y="1040" type="curve" smooth="yes"/>
      <point x="125" y="1040" type="line"/>
    </contour>
    <contour>
      <point x="505" y="266" type="line"/>
      <point x="505" y="774" type="line"/>
      <point x="639" y="774" type="line" smooth="yes"/>
      <point x="695" y="774"/>
      <point x="731" y="750"/>
      <point x="731" y="710" type="curve" smooth="yes"/>
      <point x="731" y="666"/>
      <point x="697" y="644"/>
      <point x="639" y="644" type="curve" smooth="yes"/>
      <point x="473" y="644" type="line"/>
      <point x="473" y="400" type="line"/>
      <point x="657" y="400" type="line" smooth="yes"/>
      <point x="727" y="400"/>
      <point x="757" y="372"/>
      <point x="757" y="332" type="curve" smooth="yes"/>
      <point x="757" y="292"/>
      <point x="723" y="266"/>
      <point x="657" y="266" type="curve" smooth="yes"/>
    </contour>
  </outline>
</glyph>
<glyph name="zhe-cy" format="2">
  <advance width="1802"/>
  <unicode hex="0436"/>
  <anchor x="1671" y="0" name="descender"/>
  <anchor x="897" y="1040" name="top"/>
  <outline>
    <contour>
      <point x="697" y="0" type="line"/>
      <point x="1097" y="0" type="line"/>
      <point x="1097" y="370" type="line"/>
      <point x="1389" y="370" type="line"/>
      <point x="1389" y="682" type="line"/>
      <point x="1097" y="682" type="line"/>
      <point x="1097" y="1100" type="line"/>
      <point x="697" y="914" type="line"/>
      <point x="697" y="682" type="line"/>
      <point x="403" y="682" type="line"/>
      <point x="403" y="370" type="line"/>
      <point x="697" y="370" type="line"/>
    </contour>
    <contour>
      <point x="17" y="0" type="line"/>
      <point x="463" y="0" type="line"/>
      <point x="747" y="538" type="line"/>
      <point x="445" y="1040" type="line"/>
      <point x="11" y="1040" type="line"/>
      <point x="321" y="542" type="line"/>
    </contour>
    <contour>
      <point x="1323" y="0" type="line"/>
      <point x="1791" y="0" type="line"/>
      <point x="1473" y="560" type="line"/>
      <point x="1783" y="1040" type="line"/>
      <point x="1363" y="1040" type="line"/>
      <point x="1047" y="538" type="line"/>
    </contour>
  </outline>
</glyph>
<glyph name="ii-cy" format="2">
  <advance width="1366"/>
  <unicode hex="0438"/>
  <anchor x="683" y="0" name="bottom"/>
  <anchor x="683" y="1040" name="top"/>
  <outline>
    <contour>
      <point x="125" y="0" type="line"/>
      <point x="487" y="0" type="line"/>
      <point x="861" y="496" type="line"/>
      <point x="861" y="0" type="line"/>
      <point x="1241" y="0" type="line"/>
      <point x="1241" y="1040" type="line"/>
      <point x="879" y="1040" type="line"/>
      <point x="505" y="552" type="line"/>
      <point x="505" y="1100" type="line"/>
      <point x="125" y="924" type="line"/>
    </contour>
  </outline>
</glyph>
<glyph name="te-cy" format="2">
  <advance width="1030"/>
  <unicode hex="0442"/>
  <anchor x="517" y="452" name="bar"/>
  <anchor x="515" y="0" name="bottom"/>
  <anchor x="515" y="1040" name="top"/>
  <outline>
    <contour>
      <point x="315" y="0" type="line"/>
      <point x="715" y="0" type="line"/>
      <point x="715" y="728" type="line"/>
      <point x="987" y="728" type="line"/>
      <point x="987" y="1040" type="line"/>
      <point x="83" y="1040" type="line"/>
      <point x="3" y="728" type="line"/>
      <point x="315" y="728" type="line"/>
    </contour>
  </outline>
</glyph>
<glyph name="ef-cy" format="2">
  <advance width="1658"/>
  <unicode hex="0444"/>
  <outline>
    <contour>
      <point x="627" y="-420" type="line"/>
      <point x="1025" y="-420" type="line"/>
      <point x="1027" y="1480" type="line"/>
      <point x="627" y="1294" type="line"/>
    </contour>
    <contour>
      <point x="821" y="-26" type="curve" smooth="yes"/>
      <point x="1329" y="-26"/>
      <point x="1611" y="174"/>
      <point x="1611" y="520" type="curve" smooth="yes"/>
      <point x="1611" y="866"/>
      <point x="1349" y="1066"/>
      <point x="835" y="1066" type="curve" smooth="yes"/>
      <point x="321" y="1066"/>
      <point x="47" y="862"/>
      <point x="47" y="520" type="curve" smooth="yes"/>
      <point x="47" y="178"/>
      <point x="313" y="-26"/>
    </contour>
    <contour>
      <point x="829" y="310" type="curve" smooth="yes"/>
      <point x="521" y="310"/>
      <point x="433" y="380"/>
      <point x="433" y="520" type="curve" smooth="yes"/>
      <point x="433" y="660"/>
      <point x="519" y="730"/>
      <point x="827" y="730" type="curve" smooth="yes"/>
      <point x="1135" y="730"/>
      <point x="1223" y="660"/>
      <point x="1223" y="520" type="curve" smooth="yes"/>
      <point x="1223" y="380"/>
      <point x="1137" y="310"/>
    </contour>
  </outline>
</glyph>
<glyph name="ia-cy" format="2">
  <advance width="1188"/>
  <unicode hex="044F"/>
  <anchor x="617" y="1040" name="top"/>
  <outline>
    <contour>
      <point x="41" y="0" type="line"/>
      <point x="469" y="0" type="line"/>
      <point x="639" y="320" type="line"/>
      <point x="717" y="320" type="line"/>
      <point x="717" y="578" type="line"/>
      <point x="557" y="578" type="line" smooth="yes"/>
      <point x="499" y="578"/>
      <point x="461" y="618"/>
      <point x="461" y="674" type="curve" smooth="yes"/>
      <point x="461" y="732"/>
      <point x="505" y="768"/>
      <point x="573" y="768" type="curve" smooth="yes"/>
      <point x="685" y="768" type="line"/>
      <point x="685" y="0" type="line"/>
      <point x="1063" y="0" type="line"/>
      <point x="1063" y="1040" type="line"/>
      <point x="523" y="1040" type="line" smooth="yes"/>
      <point x="243" y="1040"/>
      <point x="73" y="896"/>
      <point x="73" y="660" type="curve" smooth="yes"/>
      <point x="73" y="446"/>
      <point x="263" y="326"/>
      <point x="489" y="326" type="curve"/>
      <point x="375" y="564" type="line"/>
    </contour>
  </outline>
</glyph>
<glyph name="lje-cy" format="2">
  <advance width="1882"/>
  <unicode hex="0459"/>
  <outline>
    <contour>
      <point x="61" y="-20" type="line"/>
      <point x="359" y="-66"/>
      <point x="603" y="46"/>
      <point x="603" y="360" type="curve" smooth="yes"/>
      <point x="603" y="728" type="line"/>
      <point x="795" y="728" type="line"/>
      <point x="1195" y="1040" type="line"/>
      <point x="243" y="1040" type="line"/>
      <point x="243" y="444" type="line" smooth="yes"/>
      <point x="243" y="316"/>
      <point x="147" y="288"/>
      <point x="61" y="292" type="curve"/>
    </contour>
    <contour>
      <point x="795" y="0" type="line"/>
      <point x="1345" y="0" type="line" smooth="yes"/>
      <point x="1641" y="0"/>
      <point x="1825" y="144"/>
      <point x="1825" y="380" type="curve" smooth="yes"/>
      <point x="1825" y="634"/>
      <point x="1643" y="758"/>
      <point x="1345" y="758" type="curve" smooth="yes"/>
      <point x="1159" y="758" type="line"/>
      <point x="1159" y="490" type="line"/>
      <point x="1311" y="490" type="line" smooth="yes"/>
      <point x="1375" y="490"/>
      <point x="1417" y="444"/>
      <point x="1417" y="380" type="curve" smooth="yes"/>
      <point x="1417" y="314"/>
      <point x="1369" y="272"/>
      <point x="1295" y="272" type="curve" smooth="yes"/>
      <point x="1195" y="272" type="line"/>
      <point x="1195" y="1040" type="line"/>
      <point x="795" y="1040" type="line"/>
    </contour>
  </outline>
</glyph>
<glyph name="yusbig-cy" format="2">
  <advance width="1796"/>
  <unicode hex="046B"/>
  <anchor x="1665" y="0" name="descender"/>
  <outline>
    <contour>
      <point x="11" y="0" type="line"/>
      <point x="457" y="0" type="line"/>
      <point x="723" y="504" type="line"/>
      <point x="561" y="770" type="line"/>
      <point x="1227" y="770" type="line"/>
      <point x="1059" y="504" type="line"/>
      <point x="1317" y="0" type="line"/>
      <point x="1785" y="0" type="line"/>
      <point x="1485" y="528" type="line"/>
      <point x="1649" y="780" type="line"/>
      <point x="1649" y="1040" type="line"/>
      <point x="127" y="1040" type="line"/>
      <point x="127" y="780" type="line"/>
      <point x="297" y="508" type="line"/>
    </contour>
    <contour>
      <point x="691" y="0" type="line"/>
      <point x="1091" y="0" type="line"/>
      <point x="1091" y="370" type="line"/>
      <point x="1383" y="370" type="line"/>
      <point x="1383" y="602" type="line"/>
      <point x="397" y="602" type="line"/>
      <point x="397" y="370" type="line"/>
      <point x="691" y="370" type="line"/>
    </contour>
  </outline>
</glyph>
<glyph name="izhitsa-cy" format="2">
  <advance width="1252"/>
  <unicode hex="0475"/>
  <outline>
    <contour>
      <point x="363" y="0" type="line"/>
      <point x="809" y="0" type="line"/>
      <point x="989" y="492" type="line" smooth="yes"/>
      <point x="1067" y="706"/>
      <point x="1137" y="730"/>
      <point x="1251" y="706" type="curve"/>
      <point x="1251" y="1060" type="line"/>
      <point x="933" y="1124"/>
      <point x="771" y="1054"/>
      <point x="693" y="776" type="curve" smooth="yes"/>
      <point x="601" y="448" type="line"/>
      <point x="435" y="1040" type="line"/>
      <point x="7" y="1040" type="line"/>
    </contour>
  </outline>
</glyph>
<glyph name="Ghemiddlehook-cy" format="2">
  <advance width="1436"/>
  <unicode hex="0494"/>
  <outline>
    <contour>
      <point x="153" y="0" type="line"/>
      <point x="557" y="0" type="line"/>
      <point x="557" y="1040" type="line"/>
      <point x="1113" y="1040" type="line"/>
      <point x="1113" y="1400" type="line"/>
      <point x="153" y="1400" type="line"/>
    </contour>
    <contour>
      <point x="971" y="-334" type="line"/>
      <point x="1253" y="-188"/>
      <point x="1389" y="88"/>
      <point x="1389" y="350" type="curve" smooth="yes"/>
      <point x="1389" y="654"/>
      <point x="1177" y="900"/>
      <point x="789" y="900" type="curve" smooth="yes"/>
      <point x="691" y="900"/>
      <point x="589" y="888"/>
      <point x="483" y="856" type="curve"/>
      <point x="487" y="532" type="line"/>
      <point x="561" y="556"/>
      <point x="619" y="568"/>
      <point x="699" y="568" type="curve" smooth="yes"/>
      <point x="869" y="568"/>
      <point x="981" y="454"/>
      <point x="981" y="318" type="curve" smooth="yes"/>
      <point x="981" y="184"/>
      <point x="913" y="52"/>
      <point x="771" y="-32" type="curve"/>
    </contour>
  </outline>
</glyph>
<glyph name="Kabashkir-cy" format="2">
  <advance width="1750"/>
  <unicode hex="04A0"/>
  <anchor x="1623" y="0" name="descender"/>
  <anchor x="995" y="1400" name="top"/>
  <outline>
    <contour>
      <point x="387" y="1032" type="line"/>
      <point x="791" y="1400" type="line"/>
      <point x="67" y="1400" type="line"/>
      <point x="-13" y="1032" type="line"/>
    </contour>
    <component base="Ka-cy" xOffset="234"/>
  </outline>
</glyph>
<glyph name="enghe-cy" format="2">
  <advance width="1616"/>
  <unicode hex="04A5"/>
  <outline>
    <contour>
      <point x="125" y="0" type="line"/>
      <point x="525" y="0" type="line"/>
      <point x="525" y="370" type="line"/>
      <point x="845" y="370" type="line"/>
      <point x="845" y="0" type="line"/>
      <point x="1245" y="0" type="line"/>
      <point x="1245" y="728" type="line"/>
      <point x="1579" y="728" type="line"/>
      <point x="1579" y="1040" type="line"/>
      <point x="845" y="1040" type="line"/>
      <point x="845" y="682" type="line"/>
      <point x="525" y="682" type="line"/>
      <point x="525" y="1100" type="line"/>
      <point x="125" y="914" type="line"/>
    </contour>
  </outline>
</glyph>
<glyph name="chekhakassian-cy" format="2">
  <advance width="1226"/>
  <unicode hex="04CC"/>
  <anchor x="723" y="0" name="_descender"/>
  <anchor x="567" y="486" name="center"/>
  <anchor x="1101" y="0" name="descender"/>
  <anchor x="701" y="0" name="descender_alt"/>
  <anchor x="567" y="1040" name="top"/>
  <outline>
    <contour>
      <point x="439" y="-384" type="line"/>
      <point x="803" y="-216" type="line"/>
      <point x="803" y="0" type="line"/>
      <point x="883" y="0" type="line"/>
      <point x="883" y="232" type="line"/>
      <point x="439" y="232" type="line"/>
    </contour>
    <component base="che-cy"/>
  </outline>
</glyph>
<glyph name="endash" format="2">
  <advance width="1000"/>
  <unicode hex="2013"/>
  <outline>
    <contour>
      <point x="20" y="412" type="line"/>
      <point x="980" y="412" type="line"/>
      <point x="980" y="728" type="line"/>
      <point x="20" y="728" type="line"/>
    </contour>
  </outline>
</glyph>
<glyph name="dagger" format="2">
  <advance width="1346"/>
  <unicode hex="2020"/>
  <outline>
    <contour>
      <point x="476" y="-118" type="line"/>
      <point x="870" y="-118" type="line"/>
      <point x="870" y="802" type="line"/>
      <point x="1282" y="802" type="line"/>
      <point x="1282" y="1126" type="line"/>
      <point x="870" y="1126" type="line"/>
      <point x="870" y="1600" type="line"/>
      <point x="476" y="1600" type="line"/>
      <point x="476" y="1126" type="line"/>
      <point x="64" y="1126" type="line"/>
      <point x="64" y="802" type="line"/>
      <point x="476" y="802" type="line"/>
    </contour>
  </outline>
</glyph>
<glyph name="minute" format="2">
  <advance width="516"/>
  <unicode hex="2032"/>
  <outline>
    <contour>
      <point x="44" y="702" type="line"/>
      <point x="326" y="702" type="line"/>
      <point x="498" y="1400" type="line"/>
      <point x="138" y="1400" type="line"/>
    </contour>
  </outline>
</glyph>
<glyph name="commercialMinusSign" format="2">
  <advance width="1296"/>
  <unicode hex="2052"/>
  <outline>
    <contour>
      <point x="388" y="0" type="line"/>
      <point x="1172" y="1400" type="line"/>
      <point x="908" y="1400" type="line"/>
      <point x="122" y="0" type="line"/>
    </contour>
    <contour>
      <point x="970" y="-20" type="curve" smooth="yes"/>
      <point x="1096" y="-20"/>
      <point x="1204" y="64"/>
      <point x="1204" y="202" type="curve" smooth="yes"/>
      <point x="1204" y="342"/>
      <point x="1096" y="426"/>
      <point x="970" y="426" type="curve" smooth="yes"/>
      <point x="844" y="426"/>
      <point x="736" y="342"/>
      <point x="736" y="202" type="curve" smooth="yes"/>
      <point x="736" y="64"/>
      <point x="844" y="-20"/>
    </contour>
    <contour>
      <point x="326" y="974" type="curve" smooth="yes"/>
      <point x="452" y="974"/>
      <point x="560" y="1058"/>
      <point x="560" y="1196" type="curve" smooth="yes"/>
      <point x="560" y="1336"/>
      <point x="452" y="1420"/>
      <point x="326" y="1420" type="curve" smooth="yes"/>
      <point x="200" y="1420"/>
      <point x="92" y="1336"/>
      <point x="92" y="1196" type="curve" smooth="yes"/>
      <point x="92" y="1058"/>
      <point x="200" y="974"/>
    </contour>
  </outline>
</glyph>
<glyph name="foursuperior" format="2">
  <advance width="848"/>
  <unicode hex="2074"/>
  <outline>
    <contour>
      <point x="468" y="722" type="line"/>
      <point x="682" y="722" type="line"/>
      <point x="682" y="882" type="line"/>
      <point x="800" y="882" type="line"/>
      <point x="800" y="1088" type="line"/>
      <point x="682" y="1088" type="line"/>
      <point x="682" y="1250" type="line"/>
      <point x="468" y="1250" type="line"/>
      <point x="468" y="1088" type="line"/>
      <point x="300" y="1088" type="line"/>
      <point x="564" y="1632" type="line"/>
      <point x="310" y="1632" type="line"/>
      <point x="34" y="1066" type="line"/>
      <point x="34" y="882" type="line"/>
      <point x="468" y="882" type="line"/>
    </contour>
  </outline>
</glyph>
<glyph name="franc" format="2">
  <advance width="1296"/>
  <unicode hex="20A3"/>
  <outline>
    <contour>
      <point x="48" y="140" type="line"/>
      <point x="876" y="140" type="line"/>
      <point x="876" y="390" type="line"/>
      <point x="48" y="390" type="line"/>
    </contour>
    <component base="_part.franc" xOffset="100"/>
  </outline>
</glyph>
<glyph name="liraTurkish" format="2">
  <advance width="1296"/>
  <unicode hex="20BA"/>
  <outline>
    <contour>
      <point x="618" y="-30" type="curve" smooth="yes"/>
      <point x="1014" y="-30"/>
      <point x="1308" y="192"/>
      <point x="1270" y="616" type="curve"/>
      <point x="924" y="616" type="line"/>
      <point x="942" y="428"/>
      <point x="868" y="308"/>
      <point x="678" y="308" type="curve" smooth="yes"/>
      <point x="642" y="308"/>
      <point x="602" y="312"/>
      <point x="564" y="320" type="curve"/>
      <point x="620" y="212" type="line"/>
      <point x="620" y="1400" type="line"/>
      <point x="216" y="1400" type="line"/>
      <point x="216" y="30" type="line"/>
      <point x="332" y="-12"/>
      <point x="444" y="-30"/>
    </contour>
    <contour>
      <point x="-2" y="308" type="line"/>
      <point x="390" y="514" type="line"/>
      <point x="390" y="474" type="line"/>
      <point x="1044" y="816" type="line"/>
      <point x="1044" y="1064" type="line"/>
      <point x="390" y="722" type="line"/>
      <point x="390" y="762" type="line"/>
      <point x="-2" y="556" type="line"/>
    </contour>
    <contour>
      <point x="-2" y="656" type="line"/>
      <point x="390" y="862" type="line"/>
      <point x="390" y="822" type="line"/>
      <point x="1044" y="1164" type="line"/>
      <point x="1044" y="1412" type="line"/>
      <point x="390" y="1070" type="line"/>
      <point x="390" y="1110" type="line"/>
      <point x="-2" y="904" type="line"/>
    </contour>
  </outline>
</glyph>
<glyph name="downArrow" format="2">
  <advance width="1800"/>
  <unicode hex="2193"/>
  <outline>
    <contour>
      <point x="900" y="-162" type="line"/>
      <point x="1582" y="520" type="line"/>
      <point x="1384" y="718" type="line"/>
      <point x="1048" y="382" type="line"/>
      <point x="1046" y="1520" type="line"/>
      <point x="750" y="1520" type="line"/>
      <point x="752" y="382" type="line"/>
      <point x="416" y="718" type="line"/>
      <point x="218" y="520" type="line"/>
    </contour>
  </outline>
</glyph>
<glyph name="minus" format="2">
  <advance width="1296"/>
  <unicode hex="2212"/>
  <outline>
    <contour>
      <point x="68" y="536" type="line"/>
      <point x="1228" y="536" type="line"/>
      <point x="1228" y="804" type="line"/>
      <point x="68" y="804" type="line"/>
    </contour>
  </outline>
</glyph>
<glyph name="notequal" format="2">
  <advance width="1296"/>
  <unicode hex="2260"/>
  <outline>
    <contour>
      <point x="457" y="23" type="line"/>
      <point x="1092" y="1308" type="line"/>
      <point x="836" y="1308" type="line"/>
      <point x="205" y="23" type="line"/>
    </contour>
    <contour>
      <point x="68" y="782" type="line"/>
      <point x="1228" y="782" type="line"/>
      <point x="1228" y="1050" type="line"/>
      <point x="68" y="1050" type="line"/>
    </contour>
    <contour>
      <point x="68" y="290" type="line"/>
      <point x="1228" y="290" type="line"/>
      <point x="1228" y="558" type="line"/>
      <point x="68" y="558" type="line"/>
    </contour>
  </outline>
</glyph>
<glyph name="leftanglebracket-math" format="2">
  <advance width="1296"/>
  <unicode hex="27E8"/>
  <outline>
    <contour>
      <point x="1132" y="-450" type="line"/>
      <point x="1132" y="-52" type="line"/>
      <point x="508" y="664" type="line"/>
      <point x="1132" y="1380" type="line"/>
      <point x="1132" y="1778" type="line"/>
      <point x="160" y="664" type="line"/>
    </contour>
  </outline>
</glyph>
<glyph name="_part.currencyBarHorizontalSingle" format="2">
  <advance width="1296"/>
  <anchor x="648" y="1400" name="_top"/>
  <outline>
    <contour>
      <point x="8" y="560" type="line"/>
      <point x="1288" y="560" type="line"/>
      <point x="1288" y="810" type="line"/>
      <point x="8" y="810" type="line"/>
    </contour>
  </outline>
</glyph>
<glyph name="_part.currencyVerticalBar" format="2">
  <advance width="1432"/>
  <anchor x="782" y="1400" name="_top"/>
  <outline>
    <contour>
      <point x="650" y="-160" type="line"/>
      <point x="912" y="-160" type="line"/>
      <point x="912" y="1560" type="line"/>
      <point x="650" y="1560" type="line"/>
    </contour>
  </outline>
</glyph>
<glyph name="_part.cy-desc-lc-stem" format="2">
  <advance width="1200"/>
  <anchor x="1190" y="0" name="_descender"/>
  <outline>
    <contour>
      <point x="1008" y="-384" type="line"/>
      <point x="1372" y="-216" type="line"/>
      <point x="1372" y="312" type="line"/>
      <point x="1008" y="312" type="line"/>
    </contour>
  </outline>
</glyph>
<glyph name="_part.cy-desc-uc-reversed-stem" format="2">
  <advance width="988"/>
  <anchor x="-144" y="0" name="_descender"/>
  <outline>
    <contour>
      <point x="-336" y="-440" type="line"/>
      <point x="48" y="-260" type="line"/>
      <point x="48" y="0" type="line"/>
      <point x="68" y="20" type="line"/>
      <point x="68" y="468" type="line"/>
      <point x="-336" y="278" type="line"/>
    </contour>
  </outline>
</glyph>
<glyph name="_part.cy-descender-lc-center" format="2">
  <advance width="988"/>
  <anchor x="-154" y="0" name="_bottom"/>
  <outline>
    <contour>
      <point x="-336" y="-386" type="line"/>
      <point x="28" y="-214" type="line"/>
      <point x="28" y="208" type="line"/>
      <point x="-336" y="208" type="line"/>
    </contour>
  </outline>
</glyph>
<glyph name="_part.dollar" format="2">
  <advance width="1296"/>
  <anchor x="664" y="0" name="bottom"/>
  <anchor x="686" y="1400" name="top"/>
  <outline>
    <contour>
      <point x="672" y="-30" type="curve" smooth="yes"/>
      <point x="998" y="-30"/>
      <point x="1206" y="152"/>
      <point x="1206" y="418" type="curve" smooth="yes"/>
      <point x="1206" y="632"/>
      <point x="1074" y="752"/>
      <point x="816" y="824" type="curve"/>
      <point x="680" y="839" type="line"/>
      <point x="499" y="882"/>
      <point x="452" y="922"/>
      <point x="452" y="1012" type="curve" smooth="yes"/>
      <point x="452" y="1100"/>
      <point x="532" y="1156"/>
      <point x="676" y="1156" type="curve" smooth="yes"/>
      <point x="838" y="1156"/>
      <point x="1002" y="1106"/>
      <point x="1088" y="1038" type="curve"/>
      <point x="1088" y="1352" type="line"/>
      <point x="989" y="1401"/>
      <point x="848" y="1428"/>
      <point x="683" y="1428" type="curve" smooth="yes"/>
      <point x="369" y="1428"/>
      <point x="160" y="1246"/>
      <point x="160" y="996" type="curve" smooth="yes"/>
      <point x="160" y="800"/>
      <point x="274" y="656"/>
      <point x="553" y="577" type="curve"/>
      <point x="682" y="558" type="line"/>
      <point x="855" y="519"/>
      <point x="912" y="470"/>
      <point x="912" y="382" type="curve" smooth="yes"/>
      <point x="912" y="292"/>
      <point x="820" y="242"/>
      <point x="672" y="242" type="curve" smooth="yes"/>
      <point x="512" y="242"/>
      <point x="302" y="298"/>
      <point x="202" y="378" type="curve"/>
      <point x="202" y="65" type="line"/>
      <point x="328" y="2"/>
      <point x="497" y="-30"/>
    </contour>
  </outline>
</glyph>
<glyph name="_part.hryvnia" format="2">
  <advance width="1296"/>
  <anchor x="648" y="1400" name="top"/>
  <outline>
    <contour>
      <point x="656" y="-30" type="curve" smooth="yes"/>
      <point x="810" y="-30"/>
      <point x="956" y="8"/>
      <point x="1078" y="76" type="curve"/>
      <point x="1078" y="396" type="line"/>
      <point x="982" y="304"/>
      <point x="808" y="242"/>
      <point x="648" y="242" type="curve" smooth="yes"/>
      <point x="532" y="242"/>
      <point x="462" y="288"/>
      <point x="462" y="376" type="curve" smooth="yes"/>
      <point x="462" y="456"/>
      <point x="510" y="498"/>
      <point x="634" y="552" type="curve" smooth="yes"/>
      <point x="738" y="598" type="line" smooth="yes"/>
      <point x="934" y="684"/>
      <point x="1074" y="808"/>
      <point x="1074" y="1016" type="curve" smooth="yes"/>
      <point x="1074" y="1252"/>
      <point x="878" y="1430"/>
      <point x="576" y="1430" type="curve" smooth="yes"/>
      <point x="436" y="1430"/>
      <point x="302" y="1396"/>
      <point x="198" y="1338" type="curve"/>
      <point x="198" y="1024" type="line"/>
      <point x="286" y="1104"/>
      <point x="418" y="1158"/>
      <point x="560" y="1158" type="curve" smooth="yes"/>
      <point x="688" y="1158"/>
      <point x="762" y="1102"/>
      <point x="762" y="1018" type="curve" smooth="yes"/>
      <point x="762" y="936"/>
      <point x="704" y="900"/>
      <point x="592" y="850" type="curve" smooth="yes"/>
      <point x="490" y="804" type="line" smooth="yes"/>
      <point x="296" y="716"/>
      <point x="146" y="618"/>
      <point x="146" y="404" type="curve" smooth="yes"/>
      <point x="146" y="152"/>
      <point x="332" y="-30"/>
    </contour>
  </outline>
</glyph>
<glyph name="_part.kip" format="2">
  <advance width="1296"/>
  <outline>
    <contour>
      <point x="858" y="0" type="line"/>
      <point x="1258" y="0" type="line"/>
      <point x="978" y="694" type="line"/>
      <point x="1250" y="1400" type="line"/>
      <point x="860" y="1400" type="line"/>
      <point x="600" y="690" type="line"/>
    </contour>
    <contour>
      <point x="198" y="0" type="line"/>
      <point x="558" y="0" type="line"/>
      <point x="558" y="1400" type="line"/>
      <point x="198" y="1400" type="line"/>
    </contour>
  </outline>
</glyph>
<glyph name="_part.manat" format="2">
  <advance width="1296"/>
  <anchor x="646" y="1400" name="top"/>
  <outline>
    <contour>
      <point x="182" y="0" type="curve"/>
      <point x="496" y="0" type="line"/>
      <point x="448" y="130"/>
      <point x="424" y="324"/>
      <point x="424" y="546" type="curve" smooth="yes"/>
      <point x="424" y="774"/>
      <point x="490" y="926"/>
      <point x="646" y="926" type="curve" smooth="yes"/>
      <point x="802" y="926"/>
      <point x="870" y="772"/>
      <point x="870" y="544" type="curve" smooth="yes"/>
      <point x="870" y="336"/>
      <point x="850" y="140"/>
      <point x="798" y="0" type="curve"/>
      <point x="1114" y="0" type="line"/>
      <point x="1162" y="180"/>
      <point x="1186" y="348"/>
      <point x="1186" y="542" type="curve" smooth="yes"/>
      <point x="1186" y="920"/>
      <point x="996" y="1270"/>
      <point x="646" y="1270" type="curve" smooth="yes"/>
      <point x="298" y="1270"/>
      <point x="108" y="928"/>
      <point x="108" y="548" type="curve" smooth="yes"/>
      <point x="108" y="354"/>
      <point x="134" y="182"/>
    </contour>
  </outline>
</glyph>
<glyph name="_part.naira" format="2">
  <advance width="1296"/>
  <anchor x="646" y="0" name="bottom"/>
  <anchor x="646" y="1400" name="top"/>
  <outline>
    <contour>
      <point x="138" y="0" type="line"/>
      <point x="482" y="0" type="line"/>
      <point x="482" y="814" type="line"/>
      <point x="796" y="0" type="line"/>
      <point x="1158" y="0" type="line"/>
      <point x="1158" y="1400" type="line"/>
      <point x="812" y="1400" type="line"/>
      <point x="812" y="600" type="line"/>
      <point x="500" y="1400" type="line"/>
      <point x="138" y="1400" type="line"/>
    </contour>
  </outline>
</glyph>
<glyph name="_part.peso" format="2">
  <advance width="1296"/>
  <outline>
    <contour>
      <point x="210" y="0" type="line"/>
      <point x="574" y="0" type="line"/>
      <point x="574" y="464" type="line"/>
      <point x="738" y="464" type="line" smooth="yes"/>
      <point x="1060" y="464"/>
      <point x="1246" y="632"/>
      <point x="1246" y="932" type="curve" smooth="yes"/>
      <point x="1246" y="1246"/>
      <point x="1024" y="1400"/>
      <point x="748" y="1400" type="curve" smooth="yes"/>
      <point x="210" y="1400" type="line"/>
    </contour>
    <contour>
      <point x="574" y="770" type="line"/>
      <point x="574" y="1084" type="line"/>
      <point x="726" y="1084" type="line" smooth="yes"/>
      <point x="814" y="1084"/>
      <point x="882" y="1044"/>
      <point x="882" y="926" type="curve" smooth="yes"/>
      <point x="882" y="798"/>
      <point x="806" y="770"/>
      <point x="724" y="770" type="curve" smooth="yes"/>
    </contour>
  </outline>
</glyph>
<glyph name="_part.tse-cy" format="2">
  <advance width="1330"/>
  <anchor x="665" y="0" name="bottom"/>
  <anchor x="1205" y="0" name="descender"/>
  <outline>
    <contour>
      <point x="125" y="0" type="line"/>
      <point x="1205" y="0" type="line"/>
      <point x="1205" y="1100" type="line"/>
      <point x="805" y="914" type="line"/>
      <point x="805" y="312" type="line"/>
      <point x="525" y="312" type="line"/>
      <point x="525" y="1100" type="line"/>
      <point x="125" y="914" type="line"/>
    </contour>
  </outline>
</glyph>
<glyph name="_part.verticalstroke.case" format="2">
  <advance width="1200"/>
  <anchor x="510" y="780" name="_center"/>
  <outline>
    <contour>
      <point x="410" y="380" type="line"/>
      <point x="610" y="380" type="line"/>
      <point x="610" y="1180" type="line"/>
      <point x="410" y="1180" type="line"/>
    </contour>
  </outline>
</glyph>
<glyph name="_part.won" format="2">
  <advance width="1296"/>
  <anchor x="648" y="1400" name="top"/>
  <outline>
    <contour>
      <point x="278" y="0" type="line"/>
      <point x="554" y="0" type="line"/>
      <point x="644" y="876" type="line"/>
      <point x="738" y="0" type="line"/>
      <point x="1018" y="0" type="line"/>
      <point x="1220" y="1400" type="line"/>
      <point x="946" y="1400" type="line"/>
      <point x="872" y="546" type="line"/>
      <point x="798" y="1400" type="line"/>
      <point x="506" y="1400" type="line"/>
      <point x="432" y="546" type="line"/>
      <point x="358" y="1400" type="line"/>
      <point x="76" y="1400" type="line"/>
    </contour>
  </outline>
</glyph>
<glyph name="aogonek.ss01" format="2">
  <advance width="1338"/>
  <anchor x="635" y="0" name="bottom"/>
  <anchor x="1213" y="0" name="ogonek"/>
  <anchor x="635" y="1040" name="top"/>
  <outline>
    <contour>
      <point x="963" y="-450" type="curve" smooth="yes"/>
      <point x="1035" y="-450"/>
      <point x="1108" y="-432"/>
      <point x="1171" y="-400" type="curve"/>
      <point x="1171" y="-174" type="line"/>
      <point x="1132" y="-204"/>
      <point x="1079" y="-222"/>
      <point x="1029" y="-222" type="curve" smooth="yes"/>
      <point x="979" y="-222"/>
      <point x="947" y="-192"/>
      <point x="947" y="-145" type="curve" smooth="yes"/>
      <point x="947" y="-59"/>
      <point x="1032" y="0"/>
      <point x="1213" y="0" type="curve"/>
      <point x="1197" y="99" type="line"/>
      <point x="906.0" y="93.5"/>
      <point x="713" y="-37"/>
      <point x="713" y="-224" type="curve" smooth="yes"/>
      <point x="713" y="-356"/>
      <point x="817" y="-450"/>
    </contour>
    <component base="a.ss01"/>
  </outline>
</glyph>
<glyph name="brevecomb.narrow" format="2">
  <anchor x="406" y="1040" name="_top"/>
  <anchor x="406" y="1484" name="top"/>
  <outline>
    <contour>
      <point x="406" y="1160" type="curve" smooth="yes"/>
      <point x="644" y="1160"/>
      <point x="804" y="1318"/>
      <point x="802" y="1544" type="curve"/>
      <point x="484" y="1544" type="line"/>
      <point x="488" y="1462"/>
      <point x="454" y="1410"/>
      <point x="406" y="1410" type="curve" smooth="yes"/>
      <point x="356" y="1410"/>
      <point x="324" y="1462"/>
      <point x="328" y="1544" type="curve"/>
      <point x="10" y="1544" type="line"/>
      <point x="8" y="1314"/>
      <point x="164" y="1160"/>
    </contour>
  </outline>
</glyph>
<glyph name="dieresiscomb.narrow" format="2">
  <anchor x="436" y="1040" name="_top"/>
  <anchor x="436" y="1484" name="top"/>
  <outline>
    <contour>
      <point x="204" y="1170" type="curve" smooth="yes"/>
      <point x="312" y="1170"/>
      <point x="396" y="1248"/>
      <point x="396" y="1374" type="curve" smooth="yes"/>
      <point x="396" y="1500"/>
      <point x="312" y="1578"/>
      <point x="204" y="1578" type="curve" smooth="yes"/>
      <point x="92" y="1578"/>
      <point x="10" y="1500"/>
      <point x="10" y="1374" type="curve" smooth="yes"/>
      <point x="10" y="1248"/>
      <point x="92" y="1170"/>
    </contour>
    <contour>
      <point x="668" y="1170" type="curve" smooth="yes"/>
      <point x="780" y="1170"/>
      <point x="862" y="1248"/>
      <point x="862" y="1374" type="curve" smooth="yes"/>
      <point x="862" y="1500"/>
      <point x="780" y="1578"/>
      <point x="668" y="1578" type="curve" smooth="yes"/>
      <point x="560" y="1578"/>
      <point x="476" y="1500"/>
      <point x="476" y="1374" type="curve" smooth="yes"/>
      <point x="476" y="1248"/>
      <point x="560" y="1170"/>
    </contour>
  </outline>
</glyph>
<glyph name="dotaccentcomb.case" format="2">
  <anchor x="250" y="1400" name="_top"/>
  <anchor x="250" y="1834" name="top"/>
  <outline>
    <contour>
      <point x="250" y="1514" type="curve" smooth="yes"/>
      <point x="380" y="1514"/>
      <point x="490" y="1596"/>
      <point x="490" y="1730" type="curve" smooth="yes"/>
      <point x="490" y="1866"/>
      <point x="380" y="1948"/>
      <point x="250" y="1948" type="curve" smooth="yes"/>
      <point x="120" y="1948"/>
      <point x="10" y="1866"/>
      <point x="10" y="1730" type="curve" smooth="yes"/>
      <point x="10" y="1594"/>
      <point x="122" y="1514"/>
    </contour>
  </outline>
</glyph>
<glyph name="hookabovecomb.case" format="2">
  <anchor x="288" y="1400" name="_top"/>
  <outline>
    <contour>
      <point x="158" y="1508" type="curve"/>
      <point x="410" y="1508" type="line"/>
      <point x="388" y="1542"/>
      <point x="400" y="1562"/>
      <point x="470" y="1596" type="curve" smooth="yes"/>
      <point x="564" y="1640"/>
      <point x="594" y="1688"/>
      <point x="594" y="1760" type="curve" smooth="yes"/>
      <point x="594" y="1872"/>
      <point x="476" y="1940"/>
      <point x="288" y="1940" type="curve" smooth="yes"/>
      <point x="192" y="1940"/>
      <point x="82" y="1918"/>
      <point x="10" y="1882" type="curve"/>
      <point x="10" y="1690" type="line"/>
      <point x="68" y="1712"/>
      <point x="120" y="1726"/>
      <point x="206" y="1726" type="curve" smooth="yes"/>
      <point x="244" y="1726"/>
      <point x="276" y="1718"/>
      <point x="276" y="1704" type="curve" smooth="yes"/>
      <point x="276" y="1690"/>
      <point x="262" y="1680"/>
      <point x="216" y="1668" type="curve" smooth="yes"/>
      <point x="124" y="1642"/>
      <point x="106" y="1590"/>
    </contour>
  </outline>
</glyph>
<glyph name="hookabovecomb.narrow" format="2">
  <anchor x="258" y="1040" name="_top"/>
  <outline>
    <contour>
      <point x="138" y="1170" type="curve"/>
      <point x="374" y="1170" type="line"/>
      <point x="356" y="1212"/>
      <point x="364" y="1234"/>
      <point x="426" y="1272" type="curve" smooth="yes"/>
      <point x="504" y="1320"/>
      <point x="530" y="1370"/>
      <point x="530" y="1446" type="curve" smooth="yes"/>
      <point x="530" y="1562"/>
      <point x="426" y="1634"/>
      <point x="258" y="1634" type="curve" smooth="yes"/>
      <point x="170" y="1634"/>
      <point x="74" y="1612"/>
      <point x="10" y="1576" type="curve"/>
      <point x="10" y="1388" type="line"/>
      <point x="62" y="1412"/>
      <point x="104" y="1426"/>
      <point x="176" y="1426" type="curve" smooth="yes"/>
      <point x="204" y="1426"/>
      <point x="226" y="1414"/>
      <point x="226" y="1392" type="curve" smooth="yes"/>
      <point x="226" y="1368"/>
      <point x="218" y="1362"/>
      <point x="182" y="1346" type="curve" smooth="yes"/>
      <point x="110" y="1316"/>
      <point x="92" y="1256"/>
    </contour>
  </outline>
</glyph>
<glyph name="horncomb.case" format="2">
  <anchor x="416" y="1400" name="_horn"/>
  <outline>
    <contour>
      <point x="608" y="1076" type="curve" smooth="yes"/>
      <point x="800" y="1076"/>
      <point x="930" y="1198"/>
      <point x="930" y="1356" type="curve" smooth="yes"/>
      <point x="930" y="1424"/>
      <point x="907" y="1501"/>
      <point x="859" y="1572" type="curve"/>
      <point x="556" y="1572" type="line"/>
      <point x="602" y="1510"/>
      <point x="632" y="1442"/>
      <point x="632" y="1391" type="curve" smooth="yes"/>
      <point x="632" y="1342"/>
      <point x="604" y="1308"/>
      <point x="536" y="1308" type="curve" smooth="yes"/>
      <point x="430" y="1308"/>
      <point x="272" y="1430"/>
      <point x="10" y="1430" type="curve"/>
      <point x="12" y="1212" type="line"/>
      <point x="210" y="1212"/>
      <point x="416" y="1076"/>
    </contour>
  </outline>
</glyph>
<glyph name="hungarumlautcomb.case" format="2">
  <anchor x="498" y="1400" name="_top"/>
  <outline>
    <contour>
      <point x="570" y="1508" type="line"/>
      <point x="944" y="1508" type="line"/>
      <point x="1186" y="1862" type="line"/>
      <point x="772" y="1862" type="line"/>
    </contour>
    <contour>
      <point x="10" y="1508" type="line"/>
      <point x="386" y="1508" type="line"/>
      <point x="626" y="1862" type="line"/>
      <point x="212" y="1862" type="line"/>
    </contour>
  </outline>
</glyph>
<glyph name="macroncomb.narrow" format="2">
  <anchor x="360" y="1040" name="_top"/>
  <outline>
    <contour>
      <point x="10" y="1230" type="line"/>
      <point x="712" y="1230" type="line"/>
      <point x="712" y="1462" type="line"/>
      <point x="10" y="1462" type="line"/>
    </contour>
  </outline>
</glyph>
<glyph name="one.dnom" format="2">
  <advance width="638"/>
  <outline>
    <contour>
      <point x="274" y="0" type="line"/>
      <point x="512" y="0" type="line"/>
      <point x="512" y="930" type="line"/>
      <point x="496" y="930" type="line"/>
      <point x="78" y="790" type="line"/>
      <point x="78" y="560" type="line"/>
      <point x="274" y="622" type="line"/>
    </contour>
  </outline>
</glyph>
<glyph name="periodcentered.loclCAT.case" format="2">
  <advance width="988"/>
  <outline>
    <contour>
      <point x="-220" y="572" type="curve" smooth="yes"/>
      <point x="-94" y="572"/>
      <point x="14" y="656"/>
      <point x="14" y="794" type="curve" smooth="yes"/>
      <point x="14" y="934"/>
      <point x="-94" y="1018"/>
      <point x="-220" y="1018" type="curve" smooth="yes"/>
      <point x="-346" y="1018"/>
      <point x="-454" y="934"/>
      <point x="-454" y="794" type="curve" smooth="yes"/>
      <point x="-454" y="656"/>
      <point x="-346" y="572"/>
    </contour>
  </outline>
</glyph>
<glyph name="three.numr" format="2">
  <advance width="828"/>
  <outline>
    <contour>
      <point x="376" y="470" type="curve" smooth="yes"/>
      <point x="588" y="470"/>
      <point x="740" y="594"/>
      <point x="740" y="762" type="curve" smooth="yes"/>
      <point x="740" y="920"/>
      <point x="622" y="1012"/>
      <point x="502" y="1028" type="curve"/>
      <point x="698" y="1208" type="line"/>
      <point x="698" y="1400" type="line"/>
      <point x="100" y="1400" type="line"/>
      <point x="48" y="1190" type="line"/>
      <point x="410" y="1190" type="line"/>
      <point x="190" y="1026" type="line"/>
      <point x="258" y="864" type="line"/>
      <point x="292" y="874"/>
      <point x="334" y="880"/>
      <point x="368" y="880" type="curve" smooth="yes"/>
      <point x="444" y="880"/>
      <point x="498" y="844"/>
      <point x="498" y="782" type="curve" smooth="yes"/>
      <point x="498" y="726"/>
      <point x="440" y="688"/>
      <point x="360" y="688" type="curve" smooth="yes"/>
      <point x="262" y="688"/>
      <point x="162" y="724"/>
      <point x="110" y="782" type="curve"/>
      <point x="110" y="537" type="line"/>
      <point x="176" y="498"/>
      <point x="277" y="470"/>
    </contour>
  </outline>
</glyph>
<glyph name="tildecomb.case" format="2">
  <anchor x="451" y="1400" name="_top"/>
  <anchor x="451" y="1802" name="top"/>
  <outline>
    <contour>
      <point x="10" y="1506" type="line"/>
      <point x="67" y="1565"/>
      <point x="142" y="1604"/>
      <point x="223" y="1604" type="curve" smooth="yes"/>
      <point x="344" y="1604"/>
      <point x="501" y="1508"/>
      <point x="656" y="1508" type="curve" smooth="yes"/>
      <point x="755" y="1508"/>
      <point x="829" y="1545"/>
      <point x="891" y="1602" type="curve"/>
      <point x="891" y="1868" type="line"/>
      <point x="834" y="1808"/>
      <point x="759" y="1770"/>
      <point x="679" y="1770" type="curve" smooth="yes"/>
      <point x="558" y="1770"/>
      <point x="401" y="1866"/>
      <point x="246" y="1866" type="curve" smooth="yes"/>
      <point x="146" y="1866"/>
      <point x="71" y="1829"/>
      <point x="10" y="1774" type="curve"/>
    </contour>
  </outline>
</glyph>
<glyph name="tildecomb.narrow" format="2">
  <anchor x="395" y="1040" name="_top"/>
  <anchor x="395" y="1464" name="top"/>
  <outline>
    <contour>
      <point x="10" y="1178" type="line"/>
      <point x="60" y="1240"/>
      <point x="126" y="1280"/>
      <point x="195" y="1280" type="curve" smooth="yes"/>
      <point x="301" y="1280"/>
      <point x="440" y="1180"/>
      <point x="576" y="1180" type="curve" smooth="yes"/>
      <point x="662" y="1180"/>
      <point x="727" y="1218"/>
      <point x="781" y="1277" type="curve"/>
      <point x="781" y="1536" type="line"/>
      <point x="732" y="1474"/>
      <point x="666" y="1434"/>
      <point x="597" y="1434" type="curve" smooth="yes"/>
      <point x="491" y="1434"/>
      <point x="352" y="1534"/>
      <point x="216" y="1534" type="curve" smooth="yes"/>
      <point x="126" y="1534"/>
      <point x="62" y="1494"/>
      <point x="10" y="1438" type="curve"/>
    </contour>
  </outline>
</glyph>
<glyph name="two.dnom" format="2">
  <advance width="844"/>
  <outline>
    <contour>
      <point x="78" y="0" type="line"/>
      <point x="740" y="0" type="line"/>
      <point x="792" y="212" type="line"/>
      <point x="418" y="212" type="line"/>
      <point x="480" y="268" type="line" smooth="yes"/>
      <point x="676" y="444"/>
      <point x="740" y="532"/>
      <point x="740" y="644" type="curve" smooth="yes"/>
      <point x="740" y="812"/>
      <point x="610" y="930"/>
      <point x="402" y="930" type="curve" smooth="yes"/>
      <point x="306" y="930"/>
      <point x="203" y="901"/>
      <point x="118" y="850" type="curve"/>
      <point x="118" y="626" type="line"/>
      <point x="180" y="678"/>
      <point x="258" y="712"/>
      <point x="350" y="712" type="curve" smooth="yes"/>
      <point x="446" y="712"/>
      <point x="500" y="678"/>
      <point x="500" y="610" type="curve" smooth="yes"/>
      <point x="500" y="534"/>
      <point x="438" y="476"/>
      <point x="276" y="336" type="curve" smooth="yes"/>
      <point x="78" y="166" type="line"/>
    </contour>
  </outline>
</glyph>
<glyph name="two.numr" format="2">
  <advance width="844"/>
  <outline>
    <contour>
      <point x="78" y="490" type="line"/>
      <point x="740" y="490" type="line"/>
      <point x="792" y="702" type="line"/>
      <point x="418" y="702" type="line"/>
      <point x="480" y="758" type="line" smooth="yes"/>
      <point x="676" y="934"/>
      <point x="740" y="1022"/>
      <point x="740" y="1134" type="curve" smooth="yes"/>
      <point x="740" y="1302"/>
      <point x="610" y="1420"/>
      <point x="402" y="1420" type="curve" smooth="yes"/>
      <point x="306" y="1420"/>
      <point x="203" y="1391"/>
      <point x="118" y="1340" type="curve"/>
      <point x="118" y="1116" type="line"/>
      <point x="180" y="1168"/>
      <point x="258" y="1202"/>
      <point x="350" y="1202" type="curve" smooth="yes"/>
      <point x="446" y="1202"/>
      <point x="500" y="1168"/>
      <point x="500" y="1100" type="curve" smooth="yes"/>
      <point x="500" y="1022"/>
      <point x="436" y="964"/>
      <point x="276" y="826" type="curve" smooth="yes"/>
      <point x="78" y="656" type="line"/>
    </contour>
  </outline>
</glyph>
